<svg id="Calque_1" data-name="Calque 1" xmlns="http://www.w3.org/2000/svg" viewBox="0 0 194.95 136.88"><path d="M85.16,57.88C78.68,34.37,49.48,26.79,32.74,44.37l-.72.77C8,71.22,19.36,135.5,69.44,151.8s102.17-13.46,105.09-40.06-20.17-34.95-56-27.52C98.24,88.43,89.2,72.52,85.16,57.88Z" transform="translate(-2.53 -31.56)" fill="#a9dae6"/><path d="M126.82,61.9c-6.7,1.09-8.55,7-3.38,11.24a16,16,0,0,0,7.63,3.13c13.25,2.2,20.29-3.67,15-11.27C142.77,60.31,133.46,60.82,126.82,61.9Z" transform="translate(-2.53 -31.56)" fill="#a9dae6"/><path d="M23.12,110c-3.29-5.94-9.5-5.68-11.72.61A16,16,0,0,0,11,118.8c2.41,13.22,10.3,17.86,15.66,10.29C30,124.42,26.38,115.84,23.12,110Z" transform="translate(-2.53 -31.56)" fill="#a9dae6"/><path d="M179.26,114.83c-.62,3.23,2.05,5.52,5.07,4.28a6.44,6.44,0,0,0,2.91-2.6c3.41-5.32,1.68-9.88-3.07-9.41C181.23,107.39,179.87,111.63,179.26,114.83Z" transform="translate(-2.53 -31.56)" fill="#a9dae6"/><path d="M162.32,80.73c3.22.67,5.55-2,4.36-5a6.46,6.46,0,0,0-2.55-3c-5.26-3.5-9.84-1.85-9.46,2.91C154.91,78.63,159.13,80.07,162.32,80.73Z" transform="translate(-2.53 -31.56)" fill="#a9dae6"/><path d="M84,46.15c2.55,2.08,5.84.82,6.18-2.43a6.43,6.43,0,0,0-.91-3.79c-3-5.53-7.88-6.17-9.73-1.77C78.44,40.88,81.52,44.09,84,46.15Z" transform="translate(-2.53 -31.56)" fill="#a9dae6"/><path d="M186,162.2a3.41,3.41,0,0,0,3-.94,2.79,2.79,0,0,0,.84-1.82v0c0-4.51,5.52-4.21,7.3-9.72s-5.25-6-9.26-2.57c-2.89,2.44-6.35-1-10.54,1.88-3.64,2.47-1.62,8.57-7.59,6.67a5.37,5.37,0,0,0-5.05,1.06,8.53,8.53,0,0,0-3.19,4.88l.47.34C173.81,169.18,179.12,161.05,186,162.2Z" transform="translate(-2.53 -31.56)" fill="#03b1b9"/><path d="M174.34,162l15.62-10a.45.45,0,0,0,.14-.62.44.44,0,0,0-.62-.13L172.68,162Z" transform="translate(-2.53 -31.56)" fill="#278da5"/><path d="M173.5,132.13c-.66-9.82-.77-20.13,0-27,.95-8.93,3.11-15.14,6.42-18.47a.57.57,0,1,1,.8.8c-5.78,5.81-7.86,21.44-6,45.21Z" transform="translate(-2.53 -31.56)" fill="#03b1b9"/><path d="M175,97.28s-4.71,0-4.37-8.28C170.61,89,177.81,91.05,175,97.28Z" transform="translate(-2.53 -31.56)" fill="#278da5"/><path d="M174.59,101.54s-.26-4.7,8-4.82C182.61,96.72,181,104,174.59,101.54Z" transform="translate(-2.53 -31.56)" fill="#278da5"/><path d="M178.19,89.93s-1.81-4.34,6-7.22C184.15,82.71,185,90.14,178.19,89.93Z" transform="translate(-2.53 -31.56)" fill="#278da5"/><path d="M173.53,110.08s-4.43,1.59-6.92-6.31C166.61,103.77,174.09,103.26,173.53,110.08Z" transform="translate(-2.53 -31.56)" fill="#278da5"/><path d="M173.78,114.48s-1.06-4.58,7.08-6.14C180.86,108.34,180.49,115.82,173.78,114.48Z" transform="translate(-2.53 -31.56)" fill="#278da5"/><path d="M173.54,120.54s-4.41,1.67-7-6.19C166.5,114.35,174,113.71,173.54,120.54Z" transform="translate(-2.53 -31.56)" fill="#278da5"/><path d="M36.92,154,35.64,154,35,154,33,153.88s-17.81-30.24-6.65-40.1c3.43-3,9.44-.52,8.11,13.43C33.26,140.15,36.92,154,36.92,154Z" transform="translate(-2.53 -31.56)" fill="#278da5"/><path d="M35.64,154,35,154a85,85,0,0,1-5.46-20.72,94.74,94.74,0,0,1-1-11.37.31.31,0,0,1,.62,0,94.65,94.65,0,0,0,1,11.3A83.83,83.83,0,0,0,35.64,154Z" transform="translate(-2.53 -31.56)" fill="#03b1b9"/><path d="M40.46,160.09l-1.74.65-.93.34-2.62,1S-5.47,131.57,3.94,112.18c2.9-6,12.33-6,18.33,13.43C27.83,143.57,40.46,160.09,40.46,160.09Z" transform="translate(-2.53 -31.56)" fill="#03b1b9"/><path d="M38.72,160.74l-.93.34C29.55,153,23.07,143.38,19,136.43a140.48,140.48,0,0,1-7.63-14.65.44.44,0,0,1,.24-.58.44.44,0,0,1,.58.23A137.17,137.17,0,0,0,19.73,136C23.87,143,30.41,152.69,38.72,160.74Z" transform="translate(-2.53 -31.56)" fill="#278da5"/><path d="M179.4,161.81a10.87,10.87,0,0,0-.26-2.11c-1.46-6.69,2.52-7.95,7.76-10.07s5.86-8.38,2.15-13.6,3-9.41.5-17.26-11-2.63-12.85,4.61c-1.34,5.2-8.16,4.08-10.68,10.83-2.19,5.85,5.16,11.26-3.33,13.95a7.69,7.69,0,0,0-5,5.37,12.11,12.11,0,0,0,.31,8.28Z" transform="translate(-2.53 -31.56)" fill="#278da5"/><path d="M169,161.81l14-34.52a.64.64,0,0,0-.35-.83.63.63,0,0,0-.83.35l-14.18,35Z" transform="translate(-2.53 -31.56)" fill="#03b1b9"/><path d="M52.49,57.44S52.78,51.22,49,50c-5.88-1.86-7.52,1.19-8.43,3.21-1.16,2.59-.67,7.66,2.84,8.15C48.66,62.12,52.17,59.18,52.49,57.44Z" transform="translate(-2.53 -31.56)" fill="#212121"/><path d="M56.28,78.22a6.46,6.46,0,0,0,6.33-5.14A34,34,0,0,0,63.5,68v0c0-.34,0-.68,0-1,0-4.91-3-13.87-13.62-12.44,0,0-8.82,1-9.83,9.63,0,0-.42,4-.69,6.86l0,.15a6.46,6.46,0,0,0,6.43,7.11Z" transform="translate(-2.53 -31.56)" fill="#212121"/><path d="M68.91,88.47s1.88,14.9,4,22.55c0,0,3-1.42,7-3.35,4.33-2.09,10.56-5.91,10.56-5.91l1.57,3.79s-16.09,15.18-21.41,16-8.6-18.22-8.6-18.22Z" transform="translate(-2.53 -31.56)" fill="#278da5"/><path d="M90.22,102.2a5.35,5.35,0,0,1,.5-3.55c1-1.43,2.39-4.11,4.08-4.67,1.42-.47-.67,1.92-.73,3.44a23.13,23.13,0,0,0,3.62-.76c1.34-.43,4-1,5.21-1.21a.34.34,0,0,1,.3.58,7.65,7.65,0,0,1-3.1,1.25s4.4-.83,4.86-.16-5.07,1.62-5.07,1.62,4.29-.26,4.4.42c.07.41-4.38,1.35-4.38,1.35s4.06.1,3.08.74c-.29.19-8.14,1.07-10.87,4.3C92.12,105.55,90.28,103.65,90.22,102.2Z" transform="translate(-2.53 -31.56)" fill="#f5a483"/><path d="M41.79,85.54s-9,2.65-16.75,4.4c0,0-.2-3.36-.4-7.79-.22-4.81.17-12.1.17-12.1l-4.08.42S15,91.84,16.8,96.94s24.37-2,24.37-2Z" transform="translate(-2.53 -31.56)" fill="#278da5"/><path d="M24.58,70.55a5.39,5.39,0,0,0,2.88-2.13c.81-1.52,3-4.57,1.66-5.69-.5-.42-.86,1.38-2.17,2.16a24,24,0,0,1-1.06-3.55c-.25-1.38-1-4-1.4-5.16a.34.34,0,0,0-.65,0,7.53,7.53,0,0,0,.37,3.32S22.85,55.25,22,55.17s1,5.23,1,5.23-1.81-3.9-2.46-3.68c-.39.14.9,4.49.9,4.49s-2-3.51-2.12-2.34c0,.34,2.93,7.66,1.39,11.6C20.73,70.47,23.27,71.18,24.58,70.55Z" transform="translate(-2.53 -31.56)" fill="#f5a483"/><path d="M68.57,146.2l.08.32c-7,4.74-33.22,1.5-33.22,1.5,0-.55.1-1.12.18-1.72s.18-1.35.3-2.06c.31-1.91.74-4,1.22-6.09.15-.67.3-1.35.46-2,.48-2,1-4.08,1.46-6.08q.24-1,.48-2c.22-.94.43-1.86.62-2.75.26-1.19.49-2.33.69-3.41.13-.72.24-1.42.33-2.07s.16-1.36.21-2c-.42-1.54-.81-3-1.17-4.51-.18-.74-.36-1.47-.53-2.19-.54-2.31-1-4.5-1.43-6.55-.14-.75-.29-1.48-.42-2.19-.46-2.42-.83-4.61-1.13-6.52-.11-.77-.22-1.48-.31-2.15s-.2-1.42-.28-2c-.35-2.72-.47-4.25-.47-4.25l.19-.15a14.92,14.92,0,0,1,3.42-1.57c1.46-.49,3.07-.93,4.49-1.27l.64-.15c1.87-.44,3.26-.69,3.26-.69,6.36,1.33,8.17.47,8.17.47L59,85l.38.13,2.36.82.09,0,4.22,1.49,2.82,1-1.09,5-.48,2.2-1.44,6.63-.47,2.2L64,111.16l-.47,2.17-1.18,5.48.23,1,.47,2,.73,3.23.67,2.92.46,2,1.38,6.09.46,2,1.38,6Z" transform="translate(-2.53 -31.56)" fill="#03b1b9"/><path d="M59.42,85.14c-.67,4-2.6,8-6.6,8.4-4.84.52-7.35-5.55-8.44-9.27,1.87-.44,3.8-.87,3.8-.87,6.36,1.34,7.58.52,7.58.52L59,85Z" transform="translate(-2.53 -31.56)" fill="#f5a483"/><path d="M52.32,90.2c-5.07,0-6.28-6.26-6.29-6.32a.25.25,0,1,1,.49-.09c0,.25,1.2,6.16,6.1,5.9,4.29-.21,4.54-5,4.55-5.17a.24.24,0,0,1,.26-.24.25.25,0,0,1,.24.26s-.28,5.41-5,5.65Z" transform="translate(-2.53 -31.56)" fill="#fff"/><path d="M43.23,88.48A1.24,1.24,0,1,1,42,87.24,1.24,1.24,0,0,1,43.23,88.48Z" transform="translate(-2.53 -31.56)" fill="#212121"/><path d="M40.75,94.51a1.24,1.24,0,1,1-1.24-1.23A1.23,1.23,0,0,1,40.75,94.51Z" transform="translate(-2.53 -31.56)" fill="#212121"/><path d="M48.65,97.37a1.24,1.24,0,1,1-1.24-1.24A1.24,1.24,0,0,1,48.65,97.37Z" transform="translate(-2.53 -31.56)" fill="#212121"/><path d="M43.14,100.74a1.24,1.24,0,1,1-1.61-.69A1.24,1.24,0,0,1,43.14,100.74Z" transform="translate(-2.53 -31.56)" fill="#212121"/><path d="M53.87,103a1.24,1.24,0,1,1-1.24-1.24A1.25,1.25,0,0,1,53.87,103Z" transform="translate(-2.53 -31.56)" fill="#212121"/><path d="M61.76,105.58a1.24,1.24,0,1,1-1.24-1.24A1.24,1.24,0,0,1,61.76,105.58Z" transform="translate(-2.53 -31.56)" fill="#212121"/><path d="M63.35,89.71a1.24,1.24,0,1,1-1.24-1.23A1.23,1.23,0,0,1,63.35,89.71Z" transform="translate(-2.53 -31.56)" fill="#212121"/><path d="M54.37,110.93a1.24,1.24,0,1,1-1.24-1.23A1.24,1.24,0,0,1,54.37,110.93Z" transform="translate(-2.53 -31.56)" fill="#212121"/><path d="M46.74,114.77a1.24,1.24,0,1,1-1.23-1.24A1.24,1.24,0,0,1,46.74,114.77Z" transform="translate(-2.53 -31.56)" fill="#212121"/><path d="M45.86,107.78a1.24,1.24,0,1,1-1.24-1.24A1.24,1.24,0,0,1,45.86,107.78Z" transform="translate(-2.53 -31.56)" fill="#212121"/><path d="M58.05,97.69a1.24,1.24,0,1,1-1.24-1.24A1.24,1.24,0,0,1,58.05,97.69Z" transform="translate(-2.53 -31.56)" fill="#212121"/><path d="M64.89,96.13a1.24,1.24,0,1,1-1.24-1.24A1.24,1.24,0,0,1,64.89,96.13Z" transform="translate(-2.53 -31.56)" fill="#212121"/><path d="M60.52,113a1.24,1.24,0,1,1-1.23-1.24A1.24,1.24,0,0,1,60.52,113Z" transform="translate(-2.53 -31.56)" fill="#212121"/><path d="M60.86,122.77a1.24,1.24,0,1,1-1.24-1.24A1.24,1.24,0,0,1,60.86,122.77Z" transform="translate(-2.53 -31.56)" fill="#212121"/><path d="M54.56,118.69a1.24,1.24,0,0,1-2.3.92,1.24,1.24,0,1,1,2.3-.92Z" transform="translate(-2.53 -31.56)" fill="#212121"/><path d="M46.13,122.31a1.24,1.24,0,0,1-2.3.92,1.24,1.24,0,1,1,2.3-.92Z" transform="translate(-2.53 -31.56)" fill="#212121"/><polygon points="68.67 130.25 68.41 128.7 67.42 122.72 67.07 120.67 66.12 114.96 64.39 115.03 41.41 116.08 32.9 116.46 32.35 120.91 32.1 122.98 31.34 129.12 31.2 130.25 68.67 130.25" fill="#8577b5"/><path d="M71.19,161.81l-.23-1.4,0-.14-.16-1-.17-1-.67-4-.2-1.19-.14-.86,0-.12-.87-5.22-.06-.37-.08-.32-.07-.28-.39-1.73-.77-3.37-.22-1-.38-1.68-.46-2L66,134.76l-.23-1-.84-3.74-.32-1.36-.14-.66-.07-.31-.59-2.62c-9.34,2.76-19.24,1.12-23.63.14-.19.89-.41,1.81-.62,2.75l-.15.61-.23,1c0,.15-.07.3-.11.45-.36,1.54-.74,3.1-1.11,4.65-.08.32-.15.64-.22.95l-.12.49c-.16.68-.31,1.36-.47,2-.19.88-.38,1.75-.55,2.61-.07.32-.14.63-.2.94-.17.87-.33,1.72-.47,2.54s-.21,1.39-.29,2.07c0,.2,0,.41-.08.6s-.07.65-.09,1c0,0,0,.08,0,.13l-.55,4.45-.09.69-.12,1,0,.41L34,159.4l-.12,1,0,.32-.14,1.12Z" transform="translate(-2.53 -31.56)" fill="#212121"/><path d="M59.89,68.51s1.52-1.92,2.65-.33-.47,6.29-3.23,5.14Z" transform="translate(-2.53 -31.56)" fill="#ef7756"/><path d="M59.91,71.87a.24.24,0,0,0,.23-.16,3.59,3.59,0,0,1,2-2,.21.21,0,0,0,.14-.28.23.23,0,0,0-.3-.13,3.92,3.92,0,0,0-2.31,2.34.21.21,0,0,0,.16.27Z" transform="translate(-2.53 -31.56)" fill="#ea5244"/><path d="M61.51,71.14a.22.22,0,0,0,.13,0,.21.21,0,0,0,.07-.3,2.14,2.14,0,0,0-.88-.67.24.24,0,0,0-.31.11.22.22,0,0,0,.12.29,1.63,1.63,0,0,1,.67.51A.26.26,0,0,0,61.51,71.14Z" transform="translate(-2.53 -31.56)" fill="#ea5244"/><path d="M59.21,73.29a1.64,1.64,0,1,0,2.87,1.1,1.61,1.61,0,0,0-.63-1.29,1.69,1.69,0,0,0-.66-.32.3.3,0,0,1,.06-.31,2,2,0,0,1,.84.41,2,2,0,1,1-3.22,1.51,1.94,1.94,0,0,1,.44-1.23Z" transform="translate(-2.53 -31.56)" fill="#fff"/><path d="M48.18,78.35v5.76s2.68,2.07,4.77,2.25,2.81-2.28,2.81-2.28V78.71Z" transform="translate(-2.53 -31.56)" fill="#f5a483"/><path d="M48.18,78.91v2.3c1.41,1.56,3.9,2.11,7.58,1.57V79.27Z" transform="translate(-2.53 -31.56)" fill="#ef7756"/><path d="M60.81,70.7c-.07.56-.15,1.13-.25,1.69-.66,3.75-3,7.8-6,8.48-6.47,1.47-9.15-3.61-10.19-7.36-.11-.41.1-.89,0-1.38-.21-1.17-.68-2.5-.79-3.81-.07-.9-.13-1.8-.16-2.6a5.3,5.3,0,0,1,3.27-5.2c3-1.18,7.49-2.11,11.77.39A5.33,5.33,0,0,1,61,65.43,40.65,40.65,0,0,1,60.81,70.7Z" transform="translate(-2.53 -31.56)" fill="#f5a483"/><path d="M52.6,73.61a.25.25,0,0,1,0-.5l.87-.15L52.24,69.8a.25.25,0,0,1,.14-.33.26.26,0,0,1,.33.15l1.4,3.74-1.46.24Z" transform="translate(-2.53 -31.56)" fill="#ef7756"/><path d="M55.7,69.42c0,.55.28,1,.64,1s.63-.45.63-1-.28-1-.63-1S55.7,68.86,55.7,69.42Z" transform="translate(-2.53 -31.56)"/><path d="M48.66,69.42c0,.55.28,1,.63,1s.64-.45.64-1-.28-1-.64-1S48.66,68.86,48.66,69.42Z" transform="translate(-2.53 -31.56)"/><path d="M58.21,66.79a12.09,12.09,0,0,0-2.65-.23c-.29,0-.52.23-.48.46h0a.41.41,0,0,0,.46.29,13.86,13.86,0,0,1,3.63.23.47.47,0,0,0-.19-.4A1.62,1.62,0,0,0,58.21,66.79Z" transform="translate(-2.53 -31.56)" fill="#212121"/><path d="M48,66.91a11.62,11.62,0,0,1,2.64-.26c.3,0,.53.22.49.45h0a.4.4,0,0,1-.45.29,14.52,14.52,0,0,0-3.64.28.5.5,0,0,1,.19-.4A1.5,1.5,0,0,1,48,66.91Z" transform="translate(-2.53 -31.56)" fill="#212121"/><path d="M55.7,75.1a2.86,2.86,0,0,1-2.89,2.5,2.75,2.75,0,0,1-2.88-2.5Z" transform="translate(-2.53 -31.56)" fill="#fff"/><path d="M52.84,79.12A2.47,2.47,0,0,0,54,78.78a.24.24,0,0,0-.25-.42h0a2.09,2.09,0,0,1-.9.26,2.21,2.21,0,0,1-1-.26.24.24,0,0,0-.33.08.24.24,0,0,0,.08.34A2.58,2.58,0,0,0,52.84,79.12Z" transform="translate(-2.53 -31.56)" fill="#ef7756"/><path d="M61.07,70.12c-.06,0-.12,0-.18-.07-.85-1.51,0-4.51-2.57-5.66a5.36,5.36,0,0,1-2.62-2.68,5.45,5.45,0,0,1-1.59,1.44A46.34,46.34,0,0,1,48.18,66a9.89,9.89,0,0,0-2,1h0A4.52,4.52,0,0,0,46,70.53c.61,2.11-.18,5.59-1.54,6.4A7.81,7.81,0,0,0,45,72.49c-.33-1.13-.33-2.92-.65-4-.34-.24-1.15-.65-1.42-.81-.08-.92-.14-1.84-.17-2.66a5.38,5.38,0,0,1,3.45-5.29c3.13-1.21,7.89-2.16,12.4.4a5.4,5.4,0,0,1,2.75,4.6A39.4,39.4,0,0,1,61.07,70.12Z" transform="translate(-2.53 -31.56)" fill="#212121"/><path d="M44.31,68.5s-1.76-2.15-2.8-.6.49,6.28,3,5.17Z" transform="translate(-2.53 -31.56)" fill="#f5a483"/><path d="M44.39,73.14a1.68,1.68,0,0,1,.14,1.17,1.65,1.65,0,1,1-2.27-1.9,1.72,1.72,0,0,1,.72-.15A.37.37,0,0,0,43,72a2,2,0,0,0-.91.19,2,2,0,1,0,2.76,2.25,2,2,0,0,0-.13-1.3Z" transform="translate(-2.53 -31.56)" fill="#fff"/><path d="M43.93,71.48a.23.23,0,0,1-.21-.15,3.33,3.33,0,0,0-1.87-2,.22.22,0,0,1-.12-.28.21.21,0,0,1,.28-.12,3.7,3.7,0,0,1,2.13,2.27.22.22,0,0,1-.15.27Z" transform="translate(-2.53 -31.56)" fill="#ef7756"/><path d="M42.46,70.77a.27.27,0,0,1-.12,0,.21.21,0,0,1-.06-.3,1.93,1.93,0,0,1,.81-.65.21.21,0,0,1,.28.11.21.21,0,0,1-.11.28,1.56,1.56,0,0,0-.62.49A.2.2,0,0,1,42.46,70.77Z" transform="translate(-2.53 -31.56)" fill="#ef7756"/><path d="M137.88,115c-4.11,2.95-10.54,5-10.54,5L126,115.28l-1-3.7-.72-2.6H116.9c.4,1.38.81,2.79,1.22,4.18.53,1.8,1.07,3.55,1.57,5.17.71,2.28,1.37,4.28,1.9,5.71.12.34.26.7.42,1.09,1,2.66,1.78,5.54,5.54,3.73a110.8,110.8,0,0,0,10-5.27Z" transform="translate(-2.53 -31.56)" fill="#f5a483"/><path d="M118.12,113.15c.53,1.8,1.06,3.55,1.57,5.17a10.5,10.5,0,0,0,6.33-3l-1-3.7Z" transform="translate(-2.53 -31.56)" fill="#ef7756"/><path d="M116.56,87.3s7.69,18.34,11,24.28c0,0-4.63,3.94-9.14,4C118.41,115.63,115.8,95.5,116.56,87.3Z" transform="translate(-2.53 -31.56)" fill="#278da5"/><path d="M98.55,161.82c.08-1.28.15-2.51.22-3.64.27-4.63.45-7.79.45-7.79l-1.81-.08-1,0-12.32-.55s-.23,3.53-.49,8.72c0,1.06-.11,2.19-.17,3.38Z" transform="translate(-2.53 -31.56)" fill="#212121"/><path d="M97.41,150.31l1.81.08s-.18,3.16-.45,7.79a108.61,108.61,0,0,1-15.2.26c.26-5.19.49-8.72.49-8.72l12.32.55Z" transform="translate(-2.53 -31.56)"/><path d="M96.76,161.82c.28-4.95.52-9.18.65-11.51l-1,0c-.12,2.33-.36,6.59-.65,11.55Z" transform="translate(-2.53 -31.56)" fill="#604d9b"/><path d="M102.53,161.82h15.15c-.06-1.19-.11-2.32-.17-3.38-.26-5.19-.49-8.72-.49-8.72l-12.32.55-1,0-1.82.08s.18,3.16.45,7.79C102.38,159.31,102.45,160.54,102.53,161.82Z" transform="translate(-2.53 -31.56)" fill="#8577b5"/><path d="M103.68,150.31l-1.82.08s.18,3.16.45,7.79a108.66,108.66,0,0,0,15.2.26c-.26-5.19-.49-8.72-.49-8.72l-12.32.55Z" transform="translate(-2.53 -31.56)" fill="#604d9b"/><path d="M105.35,161.82c-.29-5-.53-9.22-.65-11.55l-1,0c.13,2.33.37,6.56.65,11.51Z" transform="translate(-2.53 -31.56)" fill="#604d9b"/><path d="M81.38,140.93v.75c0,4.51,0,8,.05,9.72a71.94,71.94,0,0,0,13.07,2.29l.59.05.31,0,.71,0,.77,0a69.59,69.59,0,0,0,8.9-.16l1.79-.17h.11l.46-.06.28,0a72.82,72.82,0,0,0,10.34-2c0-.78,0-1.94,0-3.39v-.84h0c0-2.09,0-4.68,0-7.61v-.76c0-2,0-4-.06-6.22,0-.25,0-.5,0-.75,0-2.24-.06-4.56-.1-6.92,0-1.44,0-2.89-.08-4.34s-.06-2.95-.1-4.41c0-.32,0-.64,0-1-.34-13.85-.93-26.59-1.89-28a15.35,15.35,0,0,0-4-3.3l-.67-.42c-.77-.48-7.05-2.62-7.85-3.09l-6.63-.46s-6.39,2.16-6.43,2.19l-.82.47a37.38,37.38,0,0,0-6,4c-.19.18-.37.35-.52.52a4.85,4.85,0,0,0-.31.4,2.29,2.29,0,0,0-.23.58c-.8,2.92-1.22,14.38-1.43,26.85,0,.9,0,1.8,0,2.7,0,.39,0,.79,0,1.19s0,.54,0,.82v.41c0,.67,0,1.35,0,2,0,.5,0,1,0,1.5C81.4,129.86,81.38,136,81.38,140.93Z" transform="translate(-2.53 -31.56)" fill="#03b1b9"/><path d="M69.52,158.74c-.16,1.77,2,.81,1.38-2.78s1.12-6.83,1.87-6.73-.62,3.92,0,5.29,1.52-1.29,2.38-2.91.83-5.35.43-8S80,125.11,80,120.5l.58-2,2.12-7.16L86,100.19s-2-8.48-5.34-7.75c0,0-1.77,5.9-3.67,12.57-.32,1.13-.64,2.28-1,3.43-1.35,4.83-2.62,9.6-3.21,12.43-1.56,7.47-1.68,23-1.68,23s-2.75,5.7-2.81,8.24C68.26,154.82,69.68,157,69.52,158.74Z" transform="translate(-2.53 -31.56)" fill="#f5a483"/><path d="M76,108.44l4.53,10.11,2.12-7.16L77,105C76.67,106.14,76.35,107.29,76,108.44Z" transform="translate(-2.53 -31.56)" fill="#ef7756"/><path d="M75.8,105.43c2,3.41,4,6.8,6,10.2.66-2.22,1.35-4.36,2-6.32h0l.75-2.27,0,0c.08-.26.16-.51.25-.75h0a55.88,55.88,0,0,0,1.92-6.57c.57-3.63-1-10.74-3.2-12.14h0c-.06.12-.23-.27-.34,0-.38.9-2.11,3.11-3,5.26l-.33.85C78.7,96.79,77.2,100.91,75.8,105.43Z" transform="translate(-2.53 -31.56)" fill="#03b1b9"/><path d="M100.33,86.55c2.88,0,4.9-2.62,5-2.73a.4.4,0,0,0,0-.52.33.33,0,0,0-.49,0s-1.91,2.46-4.45,2.46-4-2.74-4-2.77a.33.33,0,0,0-.48-.13.38.38,0,0,0-.12.5C95.76,83.54,97.43,86.55,100.33,86.55Z" transform="translate(-2.53 -31.56)" fill="#278da5"/><path d="M112.48,111.67a.32.32,0,0,0,.16,0,.38.38,0,0,0,.15-.5l-1.25-2.65a.35.35,0,0,0-.47-.17.41.41,0,0,0-.16.51l1.26,2.65A.34.34,0,0,0,112.48,111.67Z" transform="translate(-2.53 -31.56)" fill="#278da5"/><path d="M115.09,109.5a.47.47,0,0,0,.15.06.36.36,0,0,0,.38-.34l.25-3a.36.36,0,0,0-.32-.4.36.36,0,0,0-.38.33l-.24,3A.37.37,0,0,0,115.09,109.5Z" transform="translate(-2.53 -31.56)" fill="#278da5"/><path d="M108.36,104.92a.35.35,0,0,0,.34-.31l.46-2.93a.37.37,0,0,0-.29-.43.34.34,0,0,0-.4.31l-.46,2.92a.37.37,0,0,0,.29.43Z" transform="translate(-2.53 -31.56)" fill="#278da5"/><path d="M97.1,106a.37.37,0,0,0,.18-.05.39.39,0,0,0,.12-.52L96,102.89a.33.33,0,0,0-.48-.13.39.39,0,0,0-.12.51l1.41,2.55A.35.35,0,0,0,97.1,106Z" transform="translate(-2.53 -31.56)" fill="#278da5"/><path d="M110.93,94.56a.33.33,0,0,0,.19-.06l2.33-1.61a.39.39,0,0,0,.1-.52.34.34,0,0,0-.48-.11l-2.33,1.61a.39.39,0,0,0-.1.52A.34.34,0,0,0,110.93,94.56Z" transform="translate(-2.53 -31.56)" fill="#278da5"/><path d="M100.55,118.35a.29.29,0,0,0,.16,0,.38.38,0,0,0,.15-.5l-1.25-2.65a.34.34,0,0,0-.47-.16.38.38,0,0,0-.15.5l1.25,2.65A.35.35,0,0,0,100.55,118.35Z" transform="translate(-2.53 -31.56)" fill="#278da5"/><path d="M106.06,96.55a.34.34,0,0,0,.29-.17.38.38,0,0,0-.11-.52l-2.35-1.57a.33.33,0,0,0-.48.12.39.39,0,0,0,.11.51l2.35,1.58A.32.32,0,0,0,106.06,96.55Z" transform="translate(-2.53 -31.56)" fill="#278da5"/><path d="M111.65,85.54a.46.46,0,0,0,0,.21.34.34,0,0,0,.29.19.36.36,0,0,0,.37-.34l.11-1.71-.67-.42Z" transform="translate(-2.53 -31.56)" fill="#278da5"/><path d="M114.79,101.79a.34.34,0,0,0,.29-.17.38.38,0,0,0-.11-.52l-2.35-1.57a.34.34,0,0,0-.48.11.4.4,0,0,0,.11.52l2.35,1.57A.33.33,0,0,0,114.79,101.79Z" transform="translate(-2.53 -31.56)" fill="#278da5"/><path d="M96,88.87a.33.33,0,0,0,.19-.06.39.39,0,0,0,.1-.52L95,86.11a.33.33,0,0,0-.48-.1.39.39,0,0,0-.1.52l1.34,2.17A.35.35,0,0,0,96,88.87Z" transform="translate(-2.53 -31.56)" fill="#278da5"/><path d="M94.83,126.47a.36.36,0,0,0,.25-.11L97,124.21a.37.37,0,0,0,0-.52.32.32,0,0,0-.49,0l-1.92,2.14a.39.39,0,0,0,0,.53A.31.31,0,0,0,94.83,126.47Z" transform="translate(-2.53 -31.56)" fill="#278da5"/><path d="M101.89,126a.33.33,0,0,0,.25-.12l1.92-2.14a.39.39,0,0,0,0-.53.33.33,0,0,0-.49,0l-1.92,2.14a.39.39,0,0,0,0,.53A.34.34,0,0,0,101.89,126Z" transform="translate(-2.53 -31.56)" fill="#278da5"/><path d="M107,140.5a.39.39,0,0,0,0-.3l-1.19-2.67a.35.35,0,0,0-.47-.18.39.39,0,0,0-.17.5l1.2,2.68a.35.35,0,0,0,.65,0Z" transform="translate(-2.53 -31.56)" fill="#533d91"/><path d="M86.7,149.32a.37.37,0,0,0,0-.29l-1.2-2.67a.33.33,0,0,0-.46-.18.39.39,0,0,0-.17.5l1.2,2.67a.34.34,0,0,0,.47.18A.36.36,0,0,0,86.7,149.32Z" transform="translate(-2.53 -31.56)" fill="#278da5"/><path d="M95.41,153.76l.7,0,.24-1.67a.36.36,0,0,0-.29-.42.34.34,0,0,0-.4.31Z" transform="translate(-2.53 -31.56)" fill="#533d91"/><path d="M92.61,148.72a.41.41,0,0,0,.15-.25l.43-2.93a.37.37,0,0,0-.29-.43.36.36,0,0,0-.4.31l-.43,2.93a.37.37,0,0,0,.29.43A.32.32,0,0,0,92.61,148.72Z" transform="translate(-2.53 -31.56)" fill="#533d91"/><path d="M109.49,124.21a.32.32,0,0,0,.17-.06.39.39,0,0,0,.13-.51l-1.39-2.56a.34.34,0,0,0-.48-.14.39.39,0,0,0-.13.51l1.39,2.57A.35.35,0,0,0,109.49,124.21Z" transform="translate(-2.53 -31.56)" fill="#278da5"/><path d="M105.4,117.79a.35.35,0,0,0,.31-.21L107,115a.39.39,0,0,0-.15-.51.34.34,0,0,0-.47.16l-1.28,2.64a.38.38,0,0,0,.15.5A.33.33,0,0,0,105.4,117.79Z" transform="translate(-2.53 -31.56)" fill="#278da5"/><path d="M116.46,117.4a.26.26,0,0,0,.13.1.32.32,0,0,0,.36-.06l1.43-1.28c0-.32,0-.64,0-1l-1.86,1.67A.39.39,0,0,0,116.46,117.4Z" transform="translate(-2.53 -31.56)" fill="#278da5"/><path d="M105.42,89.81a.35.35,0,0,0,.31-.21L107,87a.38.38,0,0,0-.15-.51.34.34,0,0,0-.47.16l-1.27,2.64a.4.4,0,0,0,.15.51A.47.47,0,0,0,105.42,89.81Z" transform="translate(-2.53 -31.56)" fill="#278da5"/><path d="M97.27,99.47h.07a.37.37,0,0,0,.27-.44l-.52-2.91a.36.36,0,0,0-.41-.3.38.38,0,0,0-.28.44l.53,2.92A.35.35,0,0,0,97.27,99.47Z" transform="translate(-2.53 -31.56)" fill="#278da5"/><path d="M101.81,102h.06a.38.38,0,0,0,.28-.44l-.52-2.91a.36.36,0,0,0-.41-.3.38.38,0,0,0-.28.44l.53,2.91A.35.35,0,0,0,101.81,102Z" transform="translate(-2.53 -31.56)" fill="#278da5"/><path d="M98.56,92.41a.35.35,0,0,0,.29-.17l1.49-2.51a.39.39,0,0,0-.11-.51.34.34,0,0,0-.48.11l-1.49,2.51a.41.41,0,0,0,.11.52A.41.41,0,0,0,98.56,92.41Z" transform="translate(-2.53 -31.56)" fill="#278da5"/><path d="M112.2,118.25a.42.42,0,0,0,.06-.42l-1.2-2.68a.34.34,0,0,0-.46-.17.39.39,0,0,0-.17.5l1.2,2.67a.33.33,0,0,0,.46.18Z" transform="translate(-2.53 -31.56)" fill="#278da5"/><path d="M103.2,110.48a.36.36,0,0,0,.33-.24l1-2.76a.39.39,0,0,0-.2-.49.34.34,0,0,0-.45.21l-1,2.77a.37.37,0,0,0,.19.48Z" transform="translate(-2.53 -31.56)" fill="#278da5"/><path d="M92.09,127.55a.47.47,0,0,0,.16,0,.39.39,0,0,0,.15-.51l-1.25-2.64a.34.34,0,0,0-.47-.17.38.38,0,0,0-.15.5l1.25,2.65A.35.35,0,0,0,92.09,127.55Z" transform="translate(-2.53 -31.56)" fill="#278da5"/><path d="M110.5,146.58a.47.47,0,0,0,0,.16.33.33,0,0,0,.47.16l2.47-1.36a.38.38,0,0,0,.15-.5.33.33,0,0,0-.47-.16l-2.47,1.36A.39.39,0,0,0,110.5,146.58Z" transform="translate(-2.53 -31.56)" fill="#533d91"/><path d="M117.19,148.27a.36.36,0,0,0,.51.33l1.07-.59v-.84l-1.39.77A.37.37,0,0,0,117.19,148.27Z" transform="translate(-2.53 -31.56)" fill="#533d91"/><path d="M106.84,151.57l.84,1.93.46-.05.28,0-1-2.15a.33.33,0,0,0-.46-.18A.37.37,0,0,0,106.84,151.57Z" transform="translate(-2.53 -31.56)" fill="#533d91"/><path d="M87.54,120.79a.36.36,0,0,0,.35-.31l.45-2.93a.38.38,0,0,0-.29-.43.36.36,0,0,0-.4.31l-.45,2.93a.38.38,0,0,0,.29.43Z" transform="translate(-2.53 -31.56)" fill="#278da5"/><path d="M87.26,99.19a.34.34,0,0,0,.17,0,.39.39,0,0,0,.13-.51l-1.42-2.56a.35.35,0,0,0-.48-.13.39.39,0,0,0-.12.51L87,99A.36.36,0,0,0,87.26,99.19Z" transform="translate(-2.53 -31.56)" fill="#278da5"/><path d="M91.8,109.57a.33.33,0,0,0,.19-.06l2.33-1.61a.39.39,0,0,0,.1-.52.34.34,0,0,0-.48-.11l-2.33,1.61a.39.39,0,0,0-.1.52A.34.34,0,0,0,91.8,109.57Z" transform="translate(-2.53 -31.56)" fill="#278da5"/><path d="M116.47,127a.47.47,0,0,0,.16,0,.39.39,0,0,0,.15-.51l-1.25-2.64a.34.34,0,0,0-.47-.17.4.4,0,0,0-.16.5l1.26,2.65A.35.35,0,0,0,116.47,127Z" transform="translate(-2.53 -31.56)" fill="#278da5"/><path d="M87.83,113.59a.35.35,0,0,0,.3-.17.4.4,0,0,0-.11-.52l-2.36-1.57a.33.33,0,0,0-.48.12.39.39,0,0,0,.11.51l2.36,1.58A.37.37,0,0,0,87.83,113.59Z" transform="translate(-2.53 -31.56)" fill="#278da5"/><path d="M93.47,117.34a.33.33,0,0,0,.33.08A.37.37,0,0,0,94,117l-.72-2.87a.35.35,0,0,0-.43-.26.38.38,0,0,0-.25.46l.73,2.86A.4.4,0,0,0,93.47,117.34Z" transform="translate(-2.53 -31.56)" fill="#278da5"/><path d="M83.54,87.11l.61,1a.35.35,0,0,0,.29.17.36.36,0,0,0,.2-.06.4.4,0,0,0,.1-.52l-.68-1.1C83.87,86.77,83.69,86.94,83.54,87.11Z" transform="translate(-2.53 -31.56)" fill="#278da5"/><path d="M80.88,93.62l.65,1a.35.35,0,0,0,.29.17.36.36,0,0,0,.2-.06.39.39,0,0,0,.09-.52l-.91-1.49C81.1,93.05,81,93.33,80.88,93.62Z" transform="translate(-2.53 -31.56)" fill="#278da5"/><path d="M111.12,136.22a.36.36,0,0,0,.26-.11L113.3,134a.4.4,0,0,0,0-.53.33.33,0,0,0-.5,0l-1.92,2.14a.4.4,0,0,0,0,.53A.34.34,0,0,0,111.12,136.22Z" transform="translate(-2.53 -31.56)" fill="#278da5"/><path d="M98.34,143.71a.33.33,0,0,0,.25-.12l1.92-2.14a.39.39,0,0,0,0-.53.33.33,0,0,0-.49,0l-1.92,2.14a.39.39,0,0,0,0,.53A.32.32,0,0,0,98.34,143.71Z" transform="translate(-2.53 -31.56)" fill="#533d91"/><path d="M94.79,140.73a.42.42,0,0,0,.07-.28l-.35-2.94a.35.35,0,0,0-.39-.33.38.38,0,0,0-.3.42l.35,2.94a.35.35,0,0,0,.39.33A.33.33,0,0,0,94.79,140.73Z" transform="translate(-2.53 -31.56)" fill="#533d91"/><path d="M102.07,149a.36.36,0,0,0,.25-.11l1.92-2.14a.39.39,0,0,0,0-.53.32.32,0,0,0-.49,0l-1.92,2.14a.39.39,0,0,0,0,.53A.31.31,0,0,0,102.07,149Z" transform="translate(-2.53 -31.56)" fill="#533d91"/><path d="M81.38,140.93v.75l2.17.2a.36.36,0,0,0,.38-.34.37.37,0,0,0-.32-.41Z" transform="translate(-2.53 -31.56)" fill="#278da5"/><path d="M106.78,131.72a.36.36,0,0,0,.26-.11l1.92-2.14a.4.4,0,0,0,0-.53.33.33,0,0,0-.5,0l-1.92,2.14a.4.4,0,0,0,0,.53A.34.34,0,0,0,106.78,131.72Z" transform="translate(-2.53 -31.56)" fill="#533d91"/><path d="M97.54,130.79a.42.42,0,0,0,.12.26L99.79,133a.33.33,0,0,0,.49,0,.41.41,0,0,0,0-.53l-2.13-1.91a.33.33,0,0,0-.49.05A.35.35,0,0,0,97.54,130.79Z" transform="translate(-2.53 -31.56)" fill="#533d91"/><path d="M87.42,141.3a.41.41,0,0,0,.18-.05.4.4,0,0,0,.12-.52l-1.39-2.56a.33.33,0,0,0-.47-.14.38.38,0,0,0-.13.51l1.39,2.57A.34.34,0,0,0,87.42,141.3Z" transform="translate(-2.53 -31.56)" fill="#278da5"/><path d="M85,133.66a.36.36,0,0,0,.32-.2l1.27-2.64a.38.38,0,0,0-.15-.5.34.34,0,0,0-.47.16l-1.28,2.64a.39.39,0,0,0,.15.5A.34.34,0,0,0,85,133.66Z" transform="translate(-2.53 -31.56)" fill="#278da5"/><path d="M88.81,103.72a.34.34,0,0,0,.31-.2l1.27-2.64a.38.38,0,0,0-.15-.5.33.33,0,0,0-.47.16l-1.27,2.63a.39.39,0,0,0,.15.51A.32.32,0,0,0,88.81,103.72Z" transform="translate(-2.53 -31.56)" fill="#278da5"/><path d="M87.42,92.65h.07a.37.37,0,0,0,.27-.44l-.52-2.92a.35.35,0,0,0-.41-.29.37.37,0,0,0-.28.44l.53,2.91A.35.35,0,0,0,87.42,92.65Z" transform="translate(-2.53 -31.56)" fill="#278da5"/><path d="M81,102.71h.07a.37.37,0,0,0,.27-.44l-.52-2.91a.35.35,0,0,0-.41-.3.38.38,0,0,0-.28.44l.53,2.91A.36.36,0,0,0,81,102.71Z" transform="translate(-2.53 -31.56)" fill="#278da5"/><path d="M92,95.21H92a.36.36,0,0,0,.27-.43l-.52-2.92a.35.35,0,0,0-.41-.29.36.36,0,0,0-.28.43l.53,2.92A.35.35,0,0,0,92,95.21Z" transform="translate(-2.53 -31.56)" fill="#278da5"/><path d="M89.88,85.06a.31.31,0,0,0,.19,0,.37.37,0,0,0,.23-.27l.58-2.67-.82.47-.44,2A.37.37,0,0,0,89.88,85.06Z" transform="translate(-2.53 -31.56)" fill="#278da5"/><path d="M81.88,107.21a.34.34,0,0,0,.29-.17l1.49-2.51a.38.38,0,0,0-.11-.51.34.34,0,0,0-.48.11l-1.49,2.51a.39.39,0,0,0,.11.51A.33.33,0,0,0,81.88,107.21Z" transform="translate(-2.53 -31.56)" fill="#278da5"/><path d="M91.81,134.13a.42.42,0,0,0,.06-.42L90.67,131a.33.33,0,0,0-.46-.18.39.39,0,0,0-.17.5l1.2,2.68a.33.33,0,0,0,.46.18Z" transform="translate(-2.53 -31.56)" fill="#533d91"/><path d="M116.4,139.16l2.34.4c0-.25,0-.5,0-.76l-2.22-.38a.35.35,0,0,0-.4.31A.38.38,0,0,0,116.4,139.16Z" transform="translate(-2.53 -31.56)" fill="#278da5"/><path d="M117.11,132.32l1.56.26c0-.25,0-.5,0-.75l-1.44-.25a.34.34,0,0,0-.4.31A.38.38,0,0,0,117.11,132.32Z" transform="translate(-2.53 -31.56)" fill="#278da5"/><path d="M82.81,126.36a.38.38,0,0,0,.33-.24l1-2.77a.38.38,0,0,0-.2-.48.34.34,0,0,0-.45.21l-1,2.76a.39.39,0,0,0,.2.49A.27.27,0,0,0,82.81,126.36Z" transform="translate(-2.53 -31.56)" fill="#278da5"/><path d="M81.53,117.64c.65-2.72,1.48-5.73,2.3-8.33h0c.25-.81.51-1.57.75-2.27l0,0c.07-.22.15-.44.23-.65a.34.34,0,0,0,0-.1h0a.29.29,0,0,0-.2-.28.3.3,0,0,0-.39.18c-.84,2.29-1.83,5.58-2.68,8.8C81.55,115.84,81.54,116.74,81.53,117.64Z" transform="translate(-2.53 -31.56)" fill="#278da5"/><path d="M91.55,65.26s-2.43-2.68-1.51-5.8,3.43-3.09,3.43-3.09,1.47-3.32,4-3.43,4.86-4.54,7.13-3.34-.25,3.83-.25,3.83,3.9-4.1,5.18-2.9S107.71,55,107.71,55s3.27-2.3,4.34-1.43-2.56,4.66-2.56,4.66,2.36,4.24,0,6.15Z" transform="translate(-2.53 -31.56)" fill="#34669a"/><path d="M108.56,66.16s1.56-2.07,2.72-.36-.48,6.79-3.32,5.55Z" transform="translate(-2.53 -31.56)" fill="#ef7756"/><path d="M108.58,69.78a.23.23,0,0,0,.23-.17,3.71,3.71,0,0,1,2.08-2.21.24.24,0,0,0,.14-.31.24.24,0,0,0-.31-.13,4.12,4.12,0,0,0-2.37,2.52.25.25,0,0,0,.17.3Z" transform="translate(-2.53 -31.56)" fill="#ea5244"/><path d="M110.22,69a.33.33,0,0,0,.13,0,.24.24,0,0,0,.07-.33,2.17,2.17,0,0,0-.9-.73.23.23,0,0,0-.31.12.24.24,0,0,0,.12.32,1.69,1.69,0,0,1,.69.55A.23.23,0,0,0,110.22,69Z" transform="translate(-2.53 -31.56)" fill="#ea5244"/><path d="M92.52,66.16S91,64.09,89.8,65.8s.48,6.79,3.32,5.55Z" transform="translate(-2.53 -31.56)" fill="#ef7756"/><path d="M92.5,69.78a.23.23,0,0,1-.23-.17,3.71,3.71,0,0,0-2.08-2.21.24.24,0,0,1-.14-.31.24.24,0,0,1,.31-.13,4.09,4.09,0,0,1,2.37,2.52.24.24,0,0,1-.17.3Z" transform="translate(-2.53 -31.56)" fill="#ea5244"/><path d="M90.86,69a.33.33,0,0,1-.13,0,.24.24,0,0,1-.07-.33,2.17,2.17,0,0,1,.9-.73.25.25,0,0,1,.32.12.25.25,0,0,1-.12.32,1.77,1.77,0,0,0-.7.55A.23.23,0,0,1,90.86,69Z" transform="translate(-2.53 -31.56)" fill="#ea5244"/><path d="M96.71,75.65v5s1.5,2.57,3.54,2.75,3.83-2.22,3.83-2.22V76Z" transform="translate(-2.53 -31.56)" fill="#f5a483"/><path d="M96.71,75.65v2.24c1.36,1.51,3.79,1.89,7.37,1.36V76Z" transform="translate(-2.53 -31.56)" fill="#ef7756"/><path d="M91.39,62.7a49.14,49.14,0,0,0,.66,6.37h0v0h0c.1.48.2.93.31,1.33.07.24.14.49.23.74,1.19,3.75,4,9.18,10.92,6.69,2.93-1,4.45-4.07,5.23-7.35.05-.19.09-.39.13-.57s0-.25.07-.37l0-.17a.15.15,0,0,1,0-.07h0a35.32,35.32,0,0,0,.49-6.9,5.25,5.25,0,0,0-2.67-4.48c-4.38-2.48-9-1.55-12.06-.38A5.25,5.25,0,0,0,91.39,62.7Z" transform="translate(-2.53 -31.56)" fill="#f5a483"/><path d="M92.05,69.07h0v0h0c0,.16.29,1.06.54,2.07,1.19,3.75,4,9.18,10.92,6.69,2.93-1,4.45-4.07,5.23-7.35.05-.19.09-.39.13-.57s0-.25.07-.37l0-.17a.15.15,0,0,1,0-.07h0l-1-.21a7.72,7.72,0,0,1-1.15,2.7c-.87-2.08-5.26-.7-5.26-.7h0a2.92,2.92,0,0,1-.82.13,2.64,2.64,0,0,1-.84-.14s-4.34-1.44-5.24.54A27.62,27.62,0,0,1,93.12,69l-1.07.07Zm8.65,3c5-.67,4.18,2,4.18,2a8.2,8.2,0,0,1-1.39,1,5.67,5.67,0,0,1-2.93.8c-.76,0-1,.13-2.9-.92a4.88,4.88,0,0,1-1-.77h0C96.56,73.69,95.72,71.19,100.7,72.05Z" transform="translate(-2.53 -31.56)" fill="#34669a"/><path d="M96.19,66.35c0,.54.28,1,.62,1s.62-.43.62-1-.27-1-.62-1S96.19,65.81,96.19,66.35Z" transform="translate(-2.53 -31.56)"/><path d="M103.94,66.35c0,.54.28,1,.62,1s.62-.43.62-1-.28-1-.62-1S103.94,65.81,103.94,66.35Z" transform="translate(-2.53 -31.56)"/><path d="M94.61,63.06a6.9,6.9,0,0,1,4.53-.16l-.2,1.1a12.68,12.68,0,0,0-4.35.35A1.91,1.91,0,0,1,94.61,63.06Z" transform="translate(-2.53 -31.56)" fill="#34669a"/><path d="M106.78,63.07s-2.58-1-4.56-.16l.19,1.1a12.91,12.91,0,0,1,4.39.35A1.91,1.91,0,0,0,106.78,63.07Z" transform="translate(-2.53 -31.56)" fill="#34669a"/><path d="M100.46,70.71a2.36,2.36,0,0,1-.87-.19.24.24,0,0,1,.18-.44,1.46,1.46,0,0,0,1,.09.24.24,0,0,0,.12-.22,36.23,36.23,0,0,0-.14-3.67.23.23,0,0,1,.21-.26.24.24,0,0,1,.26.22,35.45,35.45,0,0,1,.15,3.76.73.73,0,0,1-.35.58A1,1,0,0,1,100.46,70.71Z" transform="translate(-2.53 -31.56)" fill="#ef7756"/><path d="M103.51,72.53a2.86,2.86,0,0,1-2.82,2.6,2.76,2.76,0,0,1-2.81-2.6Z" transform="translate(-2.53 -31.56)" fill="#fff"/><path d="M91.39,62.63a50.2,50.2,0,0,0,.66,6.44L93.12,69s-.26-1.67-.38-2.76-.32-3.13.6-3.39.37-2.57,1.65-3.58a5.9,5.9,0,0,1,6-.12c1.88,1.17,4-.08,4.87.12a2.38,2.38,0,0,1,1.73,2.54c-.33,1.13.63,1.82.87,3a16.67,16.67,0,0,1-.51,4.32l1,.21a36.15,36.15,0,0,0,.49-7,5.32,5.32,0,0,0-2.67-4.53c-4.38-2.52-9-1.58-12.06-.39A5.32,5.32,0,0,0,91.39,62.63Z" transform="translate(-2.53 -31.56)" fill="#34669a"/><path d="M135.47,116.65c-.65,5.94-4.53,19.21-7.22,21.81-3.49,3.38-15,10.5-21,14.15-1.08.66,4,5,4,5s15.91-6.8,22-12.17c1.71-1.51,5.2-6.3,9.14-15.41,1.2-2.77,4.09-8.34,3.94-12C146.16,113.92,139.51,114.61,135.47,116.65Z" transform="translate(-2.53 -31.56)" fill="#278da5"/><path d="M123.06,150.76s-4.33,1.65-5.86,3.45-3.56,3.34-3.07,4.06,2.74-1.37,2.74-1.37a3.53,3.53,0,0,0,2.79,2.53c2.18.25,6.3-4,6.3-4Z" transform="translate(-2.53 -31.56)" fill="#f5a483"/><path d="M165.76,133.23c0,.38,0,.82,0,1.33s0,1.06,0,1.67c0,.42,0,.86,0,1.33s0,.8-.05,1.22,0,.87-.06,1.33a131.51,131.51,0,0,1-2.63,21.69H129.28c1.13-5,2.84-12.89,4.21-23.13,0-.43.11-.87.17-1.31s.11-.88.16-1.33l.09-.71c0-.2,0-.4.07-.59.06-.56.11-1.1.17-1.63s.08-.88.11-1.32c.58-6.88.38-12,1.21-15.13,1-3.59,12.23-7.72,12.23-7.72l7.05.37s6.73,2.2,10.33,5.36.59,12.58.68,17.93Z" transform="translate(-2.53 -31.56)" fill="#03b1b9"/><path d="M165.75,134.56a78.87,78.87,0,0,1-9.38.52,139,139,0,0,1-22.22-2c0-.45.08-.88.11-1.32,2.71.48,18.4,3.08,31.5,1.45C165.76,133.61,165.76,134.05,165.75,134.56Z" transform="translate(-2.53 -31.56)" fill="#212121"/><path d="M165.72,136.23c0,.42,0,.86,0,1.33a80,80,0,0,1-9.31.51,138.15,138.15,0,0,1-22.55-2l.09-.71c0-.2,0-.4.07-.59C135.54,135,152,137.92,165.72,136.23Z" transform="translate(-2.53 -31.56)" fill="#212121"/><path d="M165.63,138.78c0,.43,0,.87-.06,1.33a78.14,78.14,0,0,1-9.71.56,139.57,139.57,0,0,1-22.37-2c0-.43.11-.87.17-1.31C136.08,137.8,152.28,140.53,165.63,138.78Z" transform="translate(-2.53 -31.56)" fill="#212121"/><path d="M149.73,115.7c3.51,0,6.75-3.73,6.89-3.89a.25.25,0,1,0-.38-.32s-3.42,3.94-6.81,3.71a.24.24,0,0,0-.26.23.25.25,0,0,0,.23.26Z" transform="translate(-2.53 -31.56)" fill="#278da5"/><path d="M152.77,157.65a.25.25,0,0,0,0-.5c-9.06-1-12.82-16.73-12.85-16.89a.25.25,0,0,0-.3-.18.25.25,0,0,0-.19.29c.16.66,3.88,16.19,13.29,17.27Z" transform="translate(-2.53 -31.56)" fill="#278da5"/><path d="M149.17,152.9a.25.25,0,0,0,.21-.12.25.25,0,0,0-.08-.34,11.68,11.68,0,0,1-5.55-7.4.23.23,0,0,0-.28-.2.24.24,0,0,0-.21.28,12,12,0,0,0,5.78,7.74A.2.2,0,0,0,149.17,152.9Z" transform="translate(-2.53 -31.56)" fill="#278da5"/><circle cx="149.45" cy="61.06" r="9.65" fill="#212121"/><path d="M142.21,90.84s-2.81-.77-2.44-3.5c.32-2.32,3-.82,2.81-2.63s-.78-3.47,1.57-3.92c2.06-.4,2.09,1,4.79-1,3.18-2.41,5.63,3.18,8.48,3.35,4.19.24,4.72,2.62,5.13,4.51a3.53,3.53,0,0,1-1.2,3.23Z" transform="translate(-2.53 -31.56)" fill="#212121"/><path d="M143.72,95.4S142.15,93.3,141,95s.48,6.85,3.34,5.6Z" transform="translate(-2.53 -31.56)" fill="#ef7756"/><path d="M143.7,99.06a.24.24,0,0,1-.23-.17,3.73,3.73,0,0,0-2.1-2.23.25.25,0,0,1,.17-.46,4.16,4.16,0,0,1,2.39,2.55.24.24,0,0,1-.17.3Z" transform="translate(-2.53 -31.56)" fill="#ea5244"/><path d="M142,98.27a.33.33,0,0,1-.13,0,.25.25,0,0,1-.07-.34,2.16,2.16,0,0,1,.91-.73.25.25,0,0,1,.32.12.25.25,0,0,1-.12.32,1.77,1.77,0,0,0-.7.55A.25.25,0,0,1,142,98.27Z" transform="translate(-2.53 -31.56)" fill="#ea5244"/><path d="M155.13,105v5.09s-2.1,2.25-4.15,2.42-3.3-2.26-3.3-2.26v-4.89Z" transform="translate(-2.53 -31.56)" fill="#f5a483"/><path d="M155.13,105v2.26c-1.38,1.53-3.83,1.91-7.45,1.38v-3.28Z" transform="translate(-2.53 -31.56)" fill="#ef7756"/><path d="M160.5,91.91a51.9,51.9,0,0,1-.66,6.43c-.1.5-.21,1-.32,1.38-1.08,3.75-3.76,10.19-11.26,7.5-3.32-1.18-4.85-4.87-5.54-8.63a37,37,0,0,1-.5-7,5.31,5.31,0,0,1,2.7-4.52c4.43-2.51,9.1-1.58,12.18-.39A5.3,5.3,0,0,1,160.5,91.91Z" transform="translate(-2.53 -31.56)" fill="#f5a483"/><path d="M151.49,95.51v.4a3,3,0,0,0,3,3h.1a2.74,2.74,0,0,0,1.86-.83,3,3,0,0,0,.87-2.11v-.47a1.17,1.17,0,0,0-.07-.38,1,1,0,0,0-.24-.37,1.07,1.07,0,0,0-.75-.31h-3.71a1,1,0,0,0-1,.6,1.05,1.05,0,0,0-.11.43Zm.44,0a.62.62,0,0,1,.62-.62h3.71a.62.62,0,0,1,.62.62V96a2.55,2.55,0,0,1-.73,1.8,2.31,2.31,0,0,1-1.57.7h-.09a2.49,2.49,0,0,1-1.8-.75,2.53,2.53,0,0,1-.76-1.82Z" transform="translate(-2.53 -31.56)" fill="#03b1b9"/><path d="M144.05,95.51v.4a3,3,0,0,0,3,3h.1a2.72,2.72,0,0,0,1.86-.83,3,3,0,0,0,.87-2.11v-.5a.9.9,0,0,0-.09-.4,1,1,0,0,0-1-.63h-3.72a1,1,0,0,0-.81.38,1,1,0,0,0-.21.39A1.35,1.35,0,0,0,144.05,95.51Zm.44,0a.62.62,0,0,1,.62-.62h3.72a.61.61,0,0,1,.61.62V96a2.55,2.55,0,0,1-.73,1.8,2.29,2.29,0,0,1-1.57.7h-.09a2.49,2.49,0,0,1-1.8-.75,2.53,2.53,0,0,1-.76-1.82Z" transform="translate(-2.53 -31.56)" fill="#03b1b9"/><path d="M160,94.27a5.21,5.21,0,0,0-2.52.49c-.1,0-.37.22-.38.23l.21.37a4.67,4.67,0,0,1,.41-.23,4.6,4.6,0,0,1,2.28-.42Z" transform="translate(-2.53 -31.56)" fill="#03b1b9"/><path d="M151.79,95.52l.14-.41a4.49,4.49,0,0,0-1.32-.22,2.93,2.93,0,0,0-1.2.23l.19.39a2.74,2.74,0,0,1,1-.18A4.42,4.42,0,0,1,151.79,95.52Z" transform="translate(-2.53 -31.56)" fill="#03b1b9"/><path d="M142.52,94.38v.44a5.83,5.83,0,0,1,1.76.48l.19-.39A5.75,5.75,0,0,0,142.52,94.38Z" transform="translate(-2.53 -31.56)" fill="#03b1b9"/><path d="M147.49,96.07c0,.54-.28,1-.62,1s-.63-.44-.63-1,.28-1,.63-1S147.49,95.52,147.49,96.07Z" transform="translate(-2.53 -31.56)" fill="#212121"/><path d="M154.82,96.07c0,.54-.28,1-.62,1s-.63-.44-.63-1,.28-1,.63-1S154.82,95.52,154.82,96.07Z" transform="translate(-2.53 -31.56)" fill="#212121"/><path d="M144.83,93s2.61-1,4.61-.16l-.17.93a8.51,8.51,0,0,0-4.3.31C144.84,93.69,144.66,93.48,144.83,93Z" transform="translate(-2.53 -31.56)" fill="#212121"/><path d="M156.75,93s-2.6-1-4.61-.16l.17.93a8.51,8.51,0,0,1,4.3.31C156.74,93.69,156.92,93.48,156.75,93Z" transform="translate(-2.53 -31.56)" fill="#212121"/><path d="M150.91,100.19a2.78,2.78,0,0,0,.88-.18.25.25,0,0,0,.13-.32.24.24,0,0,0-.31-.13c-.22.09-.75.23-1,.09,0,0-.11-.08-.12-.22a37,37,0,0,1,.14-3.71.23.23,0,0,0-.22-.26.24.24,0,0,0-.26.22,34.09,34.09,0,0,0-.14,3.8.75.75,0,0,0,.35.59A1,1,0,0,0,150.91,100.19Z" transform="translate(-2.53 -31.56)" fill="#ef7756"/><path d="M147.92,101.42a3.1,3.1,0,0,0,3.06,2.83,3,3,0,0,0,3.06-2.83Z" transform="translate(-2.53 -31.56)" fill="#fff"/><path d="M151,105.51a2.55,2.55,0,0,0,1.18-.33.24.24,0,0,0,.09-.33.24.24,0,0,0-.34-.08,1.7,1.7,0,0,1-1.81,0,.24.24,0,0,0-.33.07.25.25,0,0,0,.08.34A2.44,2.44,0,0,0,151,105.51Z" transform="translate(-2.53 -31.56)" fill="#ef7756"/><path d="M143.47,97a10.72,10.72,0,0,1-.23-3c.23-1.19,1.2-1.9.88-3.05a2.42,2.42,0,0,1,1.74-2.59c.88-.21,2.93.24,4.95-.74s5.27-.27,5.81,1c.66,1.53-.24,1.68,1.57,3.33.71.65-.14,2.36-.26,3.48a8.05,8.05,0,0,0,0,1.31V97h2.16c.24-1.73.37-3.63.45-5.22a5.42,5.42,0,0,0-3.4-5.31c-3.08-1.21-7.75-2.16-12.18.4a5.45,5.45,0,0,0-2.7,4.62,39.85,39.85,0,0,0,.26,5.51Z" transform="translate(-2.53 -31.56)" fill="#212121"/><path d="M159.09,98a9.56,9.56,0,0,1,.14-1.69,2,2,0,0,1,1.13-1.76,1.33,1.33,0,0,1,1.77.45c1.16,1.73-.14,7.13-3,5.88Z" transform="translate(-2.53 -31.56)" fill="#f5a483"/><path d="M159.68,99.25a.24.24,0,0,0,.2-.22,3.71,3.71,0,0,1,1.62-2.59.24.24,0,0,0,.07-.33.23.23,0,0,0-.33-.08,4.16,4.16,0,0,0-1.85,3,.25.25,0,0,0,.23.26Z" transform="translate(-2.53 -31.56)" fill="#ef7756"/><path d="M161.15,98.15l.12-.06a.25.25,0,0,0,0-.35,2.22,2.22,0,0,0-1-.54.25.25,0,0,0-.29.19.24.24,0,0,0,.18.29,1.87,1.87,0,0,1,.8.4A.26.26,0,0,0,161.15,98.15Z" transform="translate(-2.53 -31.56)" fill="#ef7756"/><path d="M163.65,113.55c-3.54,5.36-17.07,23.89-20.13,26.05-4,2.8-14.81,6.78-21,10.94-2.11,1.41,2.88,5.4,2.88,5.4s15.17-4.26,22-8.62c1.93-1.23,10-9.28,15.09-16.42,1.75-2.45,4.61-5.85,5-9.46C168,117.28,166.65,115.05,163.65,113.55Z" transform="translate(-2.53 -31.56)" fill="#278da5"/><rect x="91.16" y="124.93" width="44.11" height="5.31" rx="0.98" fill="#212121"/><path d="M93.7,161.8l-8.3-31.05a2.75,2.75,0,0,1,2.66-3.46H106.3a2.76,2.76,0,0,1,2.65,2l9.13,32.5Z" transform="translate(-2.53 -31.56)" fill="#278da5"/><path d="M109,129.3l9,32.23h2.09L111,129.3a2.74,2.74,0,0,0-2.64-2H106.3A2.76,2.76,0,0,1,109,129.3Z" transform="translate(-2.53 -31.56)" fill="#212121"/><path d="M104.26,145.94a2.86,2.86,0,0,1-2.85,3.71,5,5,0,0,1-4.57-3.71,2.86,2.86,0,0,1,2.85-3.71A5,5,0,0,1,104.26,145.94Z" transform="translate(-2.53 -31.56)" fill="#03b1b9"/><path d="M160.8,47.43a2.79,2.79,0,1,1,2.78-2.78A2.79,2.79,0,0,1,160.8,47.43Zm0-4.7a1.92,1.92,0,1,0,1.91,1.92A1.92,1.92,0,0,0,160.8,42.73Z" transform="translate(-2.53 -31.56)" fill="#03b1b9"/><path d="M170.82,57.2a2.79,2.79,0,1,1,2.78-2.79A2.78,2.78,0,0,1,170.82,57.2Zm0-4.7a1.91,1.91,0,1,0,1.91,1.91A1.92,1.92,0,0,0,170.82,52.5Z" transform="translate(-2.53 -31.56)" fill="#a9dae6"/><path d="M174.26,66.25a.44.44,0,0,1-.44-.44V63.88a.44.44,0,0,1,.88,0v1.93A.44.44,0,0,1,174.26,66.25Z" transform="translate(-2.53 -31.56)" fill="#03b1b9"/><path d="M174.26,69.62a.44.44,0,0,1-.44-.44V67.25a.44.44,0,0,1,.88,0v1.93A.44.44,0,0,1,174.26,69.62Z" transform="translate(-2.53 -31.56)" fill="#03b1b9"/><path d="M177,67h-1.73a.44.44,0,0,1-.43-.44.43.43,0,0,1,.43-.43H177a.44.44,0,0,1,.44.43A.44.44,0,0,1,177,67Z" transform="translate(-2.53 -31.56)" fill="#03b1b9"/><path d="M173.29,67h-1.73a.44.44,0,0,1-.44-.44.44.44,0,0,1,.44-.43h1.73a.43.43,0,0,1,.43.43A.44.44,0,0,1,173.29,67Z" transform="translate(-2.53 -31.56)" fill="#03b1b9"/><path d="M158.88,55.45a.43.43,0,0,1-.43-.43V53.09a.44.44,0,1,1,.87,0V55A.43.43,0,0,1,158.88,55.45Z" transform="translate(-2.53 -31.56)" fill="#03b1b9"/><path d="M158.88,58.82a.43.43,0,0,1-.43-.43V56.46a.44.44,0,1,1,.87,0v1.93A.43.43,0,0,1,158.88,58.82Z" transform="translate(-2.53 -31.56)" fill="#03b1b9"/><path d="M161.59,56.18h-1.73a.44.44,0,0,1,0-.88h1.73a.44.44,0,1,1,0,.88Z" transform="translate(-2.53 -31.56)" fill="#03b1b9"/><path d="M157.91,56.18h-1.73a.44.44,0,1,1,0-.88h1.73a.44.44,0,1,1,0,.88Z" transform="translate(-2.53 -31.56)" fill="#03b1b9"/><path d="M31.57,34.65a2.79,2.79,0,1,1,2.78,2.78A2.79,2.79,0,0,1,31.57,34.65Zm.87,0a1.92,1.92,0,1,0,1.91-1.92A1.92,1.92,0,0,0,32.44,34.65Z" transform="translate(-2.53 -31.56)" fill="#03b1b9"/><path d="M20.39,45.26A2.79,2.79,0,1,1,23.17,48,2.79,2.79,0,0,1,20.39,45.26Zm.87,0a1.91,1.91,0,1,0,1.91-1.91A1.92,1.92,0,0,0,21.26,45.26Z" transform="translate(-2.53 -31.56)" fill="#a9dae6"/><path d="M14.6,49.17a.44.44,0,0,0,.44-.44V46.8a.44.44,0,0,0-.88,0v1.93A.44.44,0,0,0,14.6,49.17Z" transform="translate(-2.53 -31.56)" fill="#03b1b9"/><path d="M14.6,52.54A.44.44,0,0,0,15,52.1V50.17a.44.44,0,0,0-.88,0V52.1A.44.44,0,0,0,14.6,52.54Z" transform="translate(-2.53 -31.56)" fill="#03b1b9"/><path d="M11.9,49.89h1.73a.44.44,0,0,0,.43-.44.43.43,0,0,0-.43-.43H11.9a.43.43,0,0,0-.44.43A.44.44,0,0,0,11.9,49.89Z" transform="translate(-2.53 -31.56)" fill="#03b1b9"/><path d="M15.57,49.89H17.3a.44.44,0,0,0,.44-.44A.44.44,0,0,0,17.3,49H15.57a.43.43,0,0,0-.43.43A.44.44,0,0,0,15.57,49.89Z" transform="translate(-2.53 -31.56)" fill="#03b1b9"/><path d="M24.66,34.36a.44.44,0,0,0,.44-.44V32a.44.44,0,0,0-.44-.44.44.44,0,0,0-.43.44v1.92A.44.44,0,0,0,24.66,34.36Z" transform="translate(-2.53 -31.56)" fill="#03b1b9"/><path d="M24.66,37.73a.44.44,0,0,0,.44-.44V35.37a.44.44,0,0,0-.44-.44.44.44,0,0,0-.43.44v1.92A.43.43,0,0,0,24.66,37.73Z" transform="translate(-2.53 -31.56)" fill="#03b1b9"/><path d="M22,35.08h1.73a.44.44,0,1,0,0-.87H22a.44.44,0,1,0,0,.87Z" transform="translate(-2.53 -31.56)" fill="#03b1b9"/><path d="M25.64,35.08h1.73a.44.44,0,0,0,0-.87H25.64a.44.44,0,1,0,0,.87Z" transform="translate(-2.53 -31.56)" fill="#03b1b9"/><path d="M139,37.6v8.48a2,2,0,0,1-2,2h-15.4l-4.65,1.67a.59.59,0,0,1-.75-.77l1.76-4.54V37.6a2,2,0,0,1,2-2h17A2,2,0,0,1,139,37.6Z" transform="translate(-2.53 -31.56)" fill="#03b1b9"/><path d="M135.74,40H121.62a.56.56,0,0,1-.56-.56h0a.56.56,0,0,1,.56-.56h14.12a.56.56,0,0,1,.56.56h0A.56.56,0,0,1,135.74,40Z" transform="translate(-2.53 -31.56)" fill="#e0d4ea"/><path d="M135.74,42.26H121.62a.56.56,0,0,1-.56-.56h0a.56.56,0,0,1,.56-.56h14.12a.56.56,0,0,1,.56.56h0A.56.56,0,0,1,135.74,42.26Z" transform="translate(-2.53 -31.56)" fill="#e0d4ea"/><path d="M135.74,44.51H121.62a.56.56,0,0,1-.56-.56h0a.56.56,0,0,1,.56-.56h14.12a.56.56,0,0,1,.56.56h0A.56.56,0,0,1,135.74,44.51Z" transform="translate(-2.53 -31.56)" fill="#e0d4ea"/><rect x="11.32" y="130.25" width="170.55" height="6.63" rx="3.17" fill="#278da5"/><path d="M184.4,165v.15H13.85V165A3.16,3.16,0,0,1,17,161.81H181.23A3.16,3.16,0,0,1,184.4,165Z" transform="translate(-2.53 -31.56)" fill="#03b1b9"/></svg>