<?xml version="1.0" encoding="utf-8"?>
<!-- Generator: Adobe Illustrator 25.3.1, SVG Export Plug-In . SVG Version: 6.00 Build 0)  -->
<svg version="1.1"
	 id="Calque_1" inkscape:version="0.92.5 (2060ec1f9f, 2020-04-08)" sodipodi:docname="lisa-center-blanc.svg" xmlns:cc="http://creativecommons.org/ns#" xmlns:dc="http://purl.org/dc/elements/1.1/" xmlns:inkscape="http://www.inkscape.org/namespaces/inkscape" xmlns:rdf="http://www.w3.org/1999/02/22-rdf-syntax-ns#" xmlns:sodipodi="http://sodipodi.sourceforge.net/DTD/sodipodi-0.dtd" xmlns:svg="http://www.w3.org/2000/svg"
	 xmlns="http://www.w3.org/2000/svg" xmlns:xlink="http://www.w3.org/1999/xlink" x="0px" y="0px" viewBox="0 0 1674.9 233.3"
	 style="enable-background:new 0 0 1674.9 233.3;" xml:space="preserve">
<style type="text/css">
	.st0{fill:#0FB2B2;}
	.st1{enable-background:new    ;}
	.st2{fill:#FCFCFC;}
</style>
<sodipodi:namedview  bordercolor="#666666" borderopacity="1" gridtolerance="10" guidetolerance="10" id="namedview29" inkscape:current-layer="Calque_1" inkscape:cx="1000" inkscape:cy="275" inkscape:pageopacity="1" inkscape:pageshadow="2" inkscape:window-height="704" inkscape:window-maximized="1" inkscape:window-width="1308" inkscape:window-x="58" inkscape:window-y="27" inkscape:zoom="0.1735" objecttolerance="10" pagecolor="#888888" showgrid="false">
	</sodipodi:namedview>
<text id="text24" transform="matrix(0.9583 0 0 1 1794.9768 315.7228)" style="font-family:'HelveticaCE'; font-size:8.8738px;"> </text>
<text id="text26" transform="matrix(0.9583 0 0 1 1797.095 315.7228)" style="fill:#252525; font-family:'HelveticaCE'; font-size:122.3952px;"> </text>
<g>
	<g id="g10">
		<polygon id="polygon2" class="st0" points="12.4,17.7 12.4,214.9 123.7,214.9 123.7,202.7 23.8,202.6 23.8,17.7 		"/>
		<rect id="rect4" x="160" y="17.7" class="st0" width="11.6" height="197.2"/>
		<polygon id="polygon6" class="st0" points="378.7,214.9 460.9,12.6 543.7,214.9 420.7,214.9 420.7,203.8 527.9,203.1 461.2,43.8 
			390.2,214.9 		"/>
		<path id="path8" class="st0" d="M342.1,33.2c0,0-10.6-13.7-38.2-17.9c0,0-18.3-4.2-39.8,0c-21.5,4.2-36.1,25.9-37.8,32.6
			c0,0-6.5,25.9,2.4,38.7c0,0,15.4,21.9,33.7,27.2c0,0,20.3,7.2,37.8,11c17.5,3.8,35.3,17.9,35.3,17.9s10.2,9,10.2,25.9
			c0,0,2,18.4-19.5,30.2c0,0-10.6,9.4-30.5,9.4c0,0-17.5,2.8-35.3,0c0,0-18.4-2.7-29.5-14.9c-0.3-0.4-0.7-0.7-1-1.1l-5.9,8.5
			c0,0,16.5,17.5,34.8,17c0,0,17.9,4.7,37.4,2.4c0,0,26.4-2.8,33.7-9.4c0,0,20.3-10.9,24.8-31.1c0,0,6.5-19.8-7.7-39.2
			c0,0-12.6-13-33.7-23.3c0,0-18.7-6.5-33.3-10.2c0,0-14.6-1.4-26.8-11.8c0,0-18.3-8-17.9-30.7c0,0-4.4-20.8,24.4-35.9
			c0,0,15-4.7,43.4-2.4c0,0,20.3,1.4,32.1,14.6L342.1,33.2z"/>
	</g>
	<g class="st1">
		<path class="st2" d="M618.2,89h41.9v15.9h-59.5V17h17.6V89z"/>
		<path class="st2" d="M655,17h16.4v12.5c0,15.4-9.4,19.5-16.1,20.9v-6.2c7.7-2.6,8.4-7,8.7-11.6h-9V17z"/>
		<path class="st2" d="M704.6,104.9H687V17h17.6V104.9z"/>
	</g>
	<g>
		<path class="st2" d="M719.8,40.9h9.7v9.1h0.2c2.2-3.4,7.5-10.9,18.5-10.9c11,0,14.5,7,16.3,10.4c5.2-6,9.3-10.4,18.8-10.4
			c6.6,0,19,3.5,19,21.5v44.3H792V63.5c0-8.8-2.6-14.8-11.4-14.8c-8.7,0-14.4,8.6-14.4,17.1v39h-10.3V60.6c0-5.4-2-11.9-9.6-11.9
			c-5.9,0-16.2,3.9-16.2,21.3v34.9h-10.3V40.9z"/>
		<path class="st2" d="M817.5,40.9h9.7v9.1h0.2c2.2-3.4,7.5-10.9,18.5-10.9c11,0,14.5,7,16.3,10.4c5.2-6,9.3-10.4,18.8-10.4
			c6.6,0,19,3.5,19,21.5v44.3h-10.3V63.5c0-8.8-2.6-14.8-11.4-14.8c-8.7,0-14.4,8.6-14.4,17.1v39h-10.3V60.6c0-5.4-2-11.9-9.6-11.9
			c-5.9,0-16.2,3.9-16.2,21.3v34.9h-10.3V40.9z"/>
		<path class="st2" d="M940.1,39c19.6,0,28.5,17.3,28.5,33.8s-8.9,33.8-28.5,33.8c-19.6,0-28.5-17.3-28.5-33.8S920.6,39,940.1,39z
			 M940.1,97.3c14.8,0,17.8-15.9,17.8-24.5s-3-24.5-17.8-24.5c-14.8,0-17.8,15.9-17.8,24.5S925.4,97.3,940.1,97.3z"/>
		<path class="st2" d="M979.6,104.9V17h10.3v31.9h0.2c4.5-6.7,10.6-9.8,17.7-9.9c16.3,0,25.6,14,25.6,31.9c0,15.3-6.1,35.7-27,35.7
			c-10.4,0-14.8-6.2-16.9-9.8h-0.2v8H979.6z M1006,48.7c-14.9,0-16.5,16.8-16.5,27.2c0,17,10.2,21.5,16.8,21.5
			c11.3,0,16.5-10.6,16.5-24.7C1022.7,64.5,1021.9,48.7,1006,48.7z"/>
		<path class="st2" d="M1045.8,29.2V17h10.3v12.2H1045.8z M1056.2,104.9h-10.3v-64h10.3V104.9z"/>
		<path class="st2" d="M1082.2,104.9h-10.3V17h10.3V104.9z"/>
		<path class="st2" d="M1097.9,29.2V17h10.3v12.2H1097.9z M1108.2,104.9h-10.3v-64h10.3V104.9z"/>
		<path class="st2" d="M1130.4,77.2c0.2,14.6,9.1,20.6,19.5,20.6c7.4,0,11.8-1.3,15.7-3.1l1.8,7.7c-3.6,1.7-9.9,3.7-18.9,3.7
			c-17.5,0-27.9-12-27.9-29.9c0-17.9,10.1-31.9,26.6-31.9c18.5,0,23.5,17,23.5,27.9c0,2.2-0.2,3.9-0.4,5H1130.4z M1160.7,69.5
			c0.1-6.9-2.7-17.5-14.3-17.5c-10.4,0-15,10-15.8,17.5H1160.7z M1143.3,20l10.3,17.5h-7.4L1131.9,20H1143.3z"/>
		<path class="st2" d="M1194.2,104.9h-10.3v-64h9.7v10.6h0.2c4.1-7.5,9.5-12.5,17.2-12.5c1.3,0,1.9,0.1,2.7,0.4v11.1h-3.9
			c-9.6,0-15.7,7.8-15.7,17.1V104.9z"/>
		<path class="st2" d="M1273.6,84.8c-0.4,3.1-3.2,12.1-10.9,17.5c-2.8,2-6.8,4.4-16.7,4.4c-17.2,0-27.4-13.6-27.4-32.1
			c0-19.8,9.1-35.6,29.4-35.6c17.7,0,26.4,14.7,26.4,37.3h-44.8c0,13.3,6,21.1,17.8,21.1c9.7,0,15.5-7.8,15.8-12.6H1273.6z
			 M1263.8,67.8c-0.6-9.9-4.6-19.1-17.1-19.1c-9.5,0-17,9.2-17,19.1H1263.8z"/>
		<path class="st2" d="M1351.6,60.3c0.5-15.3,10.2-21.3,25.3-21.3c4.9,0,22.8,1.5,22.8,17.9v36.8c0,2.7,1.3,3.8,3.4,3.8
			c0.9,0,2.2-0.2,3.4-0.5v7.8c-1.8,0.5-3.3,1.2-5.6,1.2c-9.1,0-10.6-4.9-10.9-9.8c-4,4.5-10.2,10.4-22.2,10.4
			c-11.3,0-19.2-7.5-19.2-18.5c0-5.4,1.5-17.9,18.6-20.1l17-2.2c2.5-0.2,5.4-1.2,5.4-7.6c0-6.7-4.7-10.4-14.4-10.4
			c-11.7,0-13.4,7.5-14.1,12.4H1351.6z M1389.4,72.2c-1.6,1.3-4.2,2.3-17,4c-5,0.7-13.1,2.3-13.1,10.4c0,7,3.4,11.1,11.1,11.1
			c9.6,0,19-6.5,19-15.1V72.2z"/>
		<path class="st2" d="M1457.2,104.9v-9.3l-0.2-0.2c-4.3,7.5-9.6,11.4-19.5,11.4c-9,0-19.9-4.5-19.9-19.8v-46h10.3v42.5
			c0,10.5,5.2,14.1,11.8,14.1c13,0,16.9-12,16.9-21.3V40.9h10.3v64H1457.2z"/>
	</g>
	<g class="st1">
		<path class="st2" d="M618.6,190.3c0.1,4.9,2.5,14.2,17.8,14.2c8.3,0,17.6-2.1,17.6-11.4c0-6.9-6.3-8.7-15.2-10.9l-9-2.2
			c-13.6-3.3-26.7-6.5-26.7-25.8c0-9.8,5-27,32.4-27c25.8,0,32.7,17.6,32.8,28.4h-16.9c-0.5-3.9-1.9-13.2-17.2-13.2
			c-6.7,0-14.7,2.6-14.7,10.5c0,6.9,5.4,8.3,8.9,9.2l20.5,5.3c11.5,2.9,22.1,7.8,22.1,23.6c0,26.4-25.8,28.8-33.2,28.8
			c-30.7,0-36-18.5-36-29.4H618.6z"/>
	</g>
	<g>
		<path class="st2" d="M735,197.3c-0.4,3.1-3.2,12.1-10.9,17.5c-2.8,2-6.8,4.4-16.7,4.4c-17.2,0-27.4-13.6-27.4-32.1
			c0-19.8,9.1-35.6,29.4-35.6c17.7,0,26.4,14.7,26.4,37.3h-44.8c0,13.3,6,21.1,17.8,21.1c9.7,0,15.5-7.8,15.8-12.6H735z
			 M725.2,180.3c-0.6-9.9-4.6-19.1-17.1-19.1c-9.5,0-17,9.2-17,19.1H725.2z"/>
		<path class="st2" d="M759.9,217.4h-10.3v-64h9.7V164h0.2c4.1-7.5,9.5-12.5,17.2-12.5c1.3,0,1.9,0.1,2.7,0.4V163h-3.9
			c-9.6,0-15.7,7.8-15.7,17.1V217.4z"/>
		<path class="st2" d="M829.6,153.4h11.3l-23.3,64h-11l-22.4-64h12l16,52.1h0.2L829.6,153.4z"/>
		<path class="st2" d="M849.6,141.7v-12.2H860v12.2H849.6z M860,217.4h-10.3v-64H860V217.4z"/>
		<path class="st2" d="M913.8,174.9c-1.3-8.6-5.9-13.7-14.5-13.7c-12.8,0-16.9,12.7-16.9,24.1c0,11,2.6,24.6,16.8,24.6
			c6.9,0,12.9-5.4,14.7-15.2h10c-1.1,10.2-7,24.5-25,24.5c-17.2,0-27.4-13.6-27.4-32.1c0-19.8,9.1-35.6,29.4-35.6
			c16.1,0,22.2,12.2,23,23.4H913.8z"/>
		<path class="st2" d="M986.2,197.3c-0.4,3.1-3.2,12.1-10.9,17.5c-2.8,2-6.8,4.4-16.7,4.4c-17.2,0-27.4-13.6-27.4-32.1
			c0-19.8,9.1-35.6,29.4-35.6c17.7,0,26.4,14.7,26.4,37.3h-44.8c0,13.3,6,21.1,17.8,21.1c9.7,0,15.5-7.8,15.8-12.6H986.2z
			 M976.3,180.3c-0.6-9.9-4.6-19.1-17.1-19.1c-9.5,0-17,9.2-17,19.1H976.3z"/>
		<path class="st2" d="M1082.8,217.4h-9.7v-8.8h-0.2c-4.5,8.7-11.5,10.6-17.5,10.6c-20.9,0-27-20.4-27-35.7c0-18,9.3-31.9,25.6-31.9
			c11.1,0,15.8,7.2,18.3,10.9h0.2v-32.9h10.3V217.4z M1055.6,209.9c6.6,0,16.8-4.5,16.8-21.5c0-10.4-1.6-27.2-16.5-27.2
			c-16,0-16.8,15.8-16.8,24C1039.1,199.3,1044.3,209.9,1055.6,209.9z"/>
		<path class="st2" d="M1149.2,197.3c-0.4,3.1-3.2,12.1-10.9,17.5c-2.8,2-6.8,4.4-16.7,4.4c-17.2,0-27.4-13.6-27.4-32.1
			c0-19.8,9.1-35.6,29.4-35.6c17.7,0,26.4,14.7,26.4,37.3h-44.8c0,13.3,6,21.1,17.8,21.1c9.7,0,15.5-7.8,15.8-12.6H1149.2z
			 M1139.3,180.3c-0.6-9.9-4.6-19.1-17.1-19.1c-9.5,0-17,9.2-17,19.1H1139.3z"/>
		<path class="st2" d="M1197.2,171.6c-0.1-4-1.5-10.8-14.5-10.8c-3.2,0-12.2,1.1-12.2,9.1c0,5.3,3.2,6.5,11.1,8.6l10.3,2.7
			c12.8,3.3,17.2,8.2,17.2,16.9c0,13.2-10.4,21.2-24.3,21.2c-24.3,0-26-14.7-26.4-22.4h10c0.4,5,1.8,13.1,16.3,13.1
			c7.4,0,14.1-3.1,14.1-10.2c0-5.1-3.4-6.9-12.2-9.2l-12-3.1c-8.6-2.2-14.2-6.7-14.2-15.5c0-14.1,11.1-20.4,23.2-20.4
			c21.9,0,23.5,16.9,23.5,20.1H1197.2z"/>
	</g>
	<g class="st1">
		<path class="st2" d="M1266.8,217.4h-18.5l30-87.9h20.3l29.7,87.9h-19.1l-5.4-18.1h-31.1L1266.8,217.4z M1277.4,184.1h21.5
			l-10.4-34.8h-0.2L1277.4,184.1z"/>
	</g>
	<g>
		<path class="st2" d="M1377.1,153.4h11.3l-23.3,64h-11l-22.4-64h12l16,52.1h0.2L1377.1,153.4z"/>
		<path class="st2" d="M1419,151.5c19.6,0,28.5,17.3,28.5,33.8c0,16.5-8.9,33.8-28.5,33.8c-19.6,0-28.5-17.3-28.5-33.8
			C1390.5,168.8,1399.4,151.5,1419,151.5z M1419,209.8c14.8,0,17.8-15.9,17.8-24.5c0-8.6-3-24.5-17.8-24.5
			c-14.8,0-17.8,15.9-17.8,24.5C1401.1,193.9,1404.2,209.8,1419,209.8z"/>
		<path class="st2" d="M1497.5,174.9c-1.3-8.6-5.9-13.7-14.5-13.7c-12.8,0-16.9,12.7-16.9,24.1c0,11,2.6,24.6,16.8,24.6
			c6.9,0,12.9-5.4,14.7-15.2h10c-1.1,10.2-7,24.5-25,24.5c-17.2,0-27.4-13.6-27.4-32.1c0-19.8,9.1-35.6,29.4-35.6
			c16.1,0,22.2,12.2,23,23.4H1497.5z"/>
		<path class="st2" d="M1517.5,172.8c0.5-15.3,10.2-21.3,25.3-21.3c4.9,0,22.8,1.5,22.8,17.9v36.8c0,2.7,1.3,3.8,3.4,3.8
			c0.9,0,2.2-0.2,3.4-0.5v7.8c-1.8,0.5-3.3,1.2-5.6,1.2c-9.1,0-10.6-4.9-10.9-9.8c-4,4.5-10.2,10.4-22.2,10.4
			c-11.3,0-19.2-7.5-19.2-18.5c0-5.4,1.5-17.9,18.6-20.1l17-2.2c2.5-0.2,5.4-1.2,5.4-7.6c0-6.7-4.7-10.4-14.4-10.4
			c-11.7,0-13.4,7.5-14.1,12.4H1517.5z M1555.3,184.7c-1.6,1.3-4.2,2.3-17,4c-5,0.7-13.1,2.3-13.1,10.4c0,7,3.4,11.1,11.1,11.1
			c9.6,0,19-6.5,19-15.1V184.7z"/>
		<path class="st2" d="M1595.7,162.3v41.6c0,5,4.1,5,6.2,5h3.6v8.4c-3.8,0.4-6.7,0.9-7.7,0.9c-10.2,0-12.4-6-12.4-13.7v-42.2h-8.3
			v-8.9h8.3v-17.9h10.3v17.9h9.9v8.9H1595.7z"/>
		<path class="st2" d="M1650.5,171.6c-0.1-4-1.5-10.8-14.5-10.8c-3.2,0-12.2,1.1-12.2,9.1c0,5.3,3.2,6.5,11.1,8.6l10.3,2.7
			c12.8,3.3,17.2,8.2,17.2,16.9c0,13.2-10.4,21.2-24.3,21.2c-24.3,0-26-14.7-26.4-22.4h10c0.4,5,1.8,13.1,16.3,13.1
			c7.4,0,14.1-3.1,14.1-10.2c0-5.1-3.4-6.9-12.2-9.2l-12-3.1c-8.6-2.2-14.2-6.7-14.2-15.5c0-14.1,11.1-20.4,23.2-20.4
			c21.9,0,23.5,16.9,23.5,20.1H1650.5z"/>
	</g>
</g>
</svg>
