<?xml version="1.0" encoding="utf-8"?>
<!-- Generator: Adobe Illustrator 25.3.1, SVG Export Plug-In . SVG Version: 6.00 Build 0)  -->
<svg version="1.1"
	 id="Calque_1" inkscape:version="0.92.5 (2060ec1f9f, 2020-04-08)" sodipodi:docname="lisa-center.svg" xmlns:cc="http://creativecommons.org/ns#" xmlns:dc="http://purl.org/dc/elements/1.1/" xmlns:inkscape="http://www.inkscape.org/namespaces/inkscape" xmlns:rdf="http://www.w3.org/1999/02/22-rdf-syntax-ns#" xmlns:sodipodi="http://sodipodi.sourceforge.net/DTD/sodipodi-0.dtd" xmlns:svg="http://www.w3.org/2000/svg"
	 xmlns="http://www.w3.org/2000/svg" xmlns:xlink="http://www.w3.org/1999/xlink" x="0px" y="0px" viewBox="0 0 2000 268.6"
	 style="enable-background:new 0 0 2000 268.6;" xml:space="preserve">
<style type="text/css">
	.st0{fill:#252525;}
	.st1{font-family:'HelveticaCE';}
	.st2{font-size:122.3952px;}
	.st3{fill:#0FB2B2;}
	.st4{enable-background:new    ;}
</style>
<sodipodi:namedview  bordercolor="#666666" borderopacity="1" gridtolerance="10" guidetolerance="10" id="namedview25" inkscape:current-layer="Calque_1" inkscape:cx="913.54467" inkscape:cy="275" inkscape:pageopacity="0" inkscape:pageshadow="2" inkscape:snap-text-baseline="true" inkscape:window-height="704" inkscape:window-maximized="1" inkscape:window-width="1308" inkscape:window-x="58" inkscape:window-y="27" inkscape:zoom="0.1735" objecttolerance="10" pagecolor="#ffffff" showgrid="false">
	</sodipodi:namedview>
<text id="text12" transform="matrix(0.9583 0 0 1 4.0005 333.3315)" class="st1" style="font-size:8.8738px;"> </text>
<text id="text20" transform="matrix(0.9583 0 0 1 1957.542 333.3315)" class="st1" style="font-size:8.8738px;"> </text>
<text id="text22" transform="matrix(0.9583 0 0 1 1959.6602 333.3315)" class="st0 st1 st2"> </text>
<g>
	<g id="g10" transform="translate(14)">
		<polygon id="polygon2" class="st3" points="5,246.4 135.3,246.4 135.3,232.2 18.4,232.1 18.4,15.6 5,15.6 		"/>
		<rect id="rect4" x="177.8" y="15.6" class="st3" width="13.5" height="230.8"/>
		<polygon id="polygon6" class="st3" points="447.2,246.4 433.7,246.4 529.9,9.8 626.8,246.4 482.9,246.4 482.9,233.4 608.3,232.6 
			530.3,46.3 		"/>
		<path id="path8" inkscape:connector-curvature="0" class="st3" d="M390.9,33.8c0,0-12.4-16-44.7-21c0,0-21.4-5-46.6,0
			c-25.2,5-42.3,30.4-44.2,38.1c0,0-7.6,30.4,2.9,45.3c0,0,18.1,25.6,39.4,31.9c0,0,23.8,8.4,44.2,12.9c20.4,4.4,41.3,21,41.3,21
			s11.9,10.5,11.9,30.4c0,0,2.4,21.5-22.8,35.3c0,0-12.4,11-35.6,11c0,0-20.4,3.3-41.3,0c0,0-21.5-3.1-34.5-17.4
			c-0.4-0.4-0.8-0.9-1.2-1.3l-7,9.9c0,0,19.3,20.4,40.7,19.9c0,0,20.9,5.5,43.7,2.8c0,0,30.9-3.3,39.4-11c0,0,23.8-12.7,29-36.4
			c0,0,7.6-23.2-9-45.8c0,0-14.7-15.2-39.4-27.2c0,0-21.9-7.6-39-12c0,0-17.1-1.7-31.4-13.8c0,0-21.4-9.4-20.9-35.9
			c0,0-5.2-24.4,28.5-42c0,0,17.6-5.5,50.8-2.8c0,0,23.8,1.7,37.5,17.1L390.9,33.8z"/>
	</g>
	<g class="st4">
		<path class="st0" d="M758.8,99.1h49v18.6h-69.6V14.8h20.6V99.1z"/>
		<path class="st0" d="M801.9,14.8h19.2v14.6c0,18-11,22.8-18.8,24.5v-7.3c9.1-3,9.9-8.2,10.2-13.6h-10.6V14.8z"/>
		<path class="st0" d="M860,117.7h-20.6V14.8H860V117.7z"/>
	</g>
	<g>
		<path class="st0" d="M877.7,42.8h11.4v10.6h0.3c2.6-4,8.8-12.7,21.7-12.7c12.9,0,17,8.2,19.1,12.2c6-7,10.8-12.2,22-12.2
			c7.7,0,22.2,4.2,22.2,25.2v51.9h-12.1V69.3c0-10.3-3-17.3-13.3-17.3c-10.2,0-16.9,10-16.9,20.1v45.7H920V65.8
			c0-6.3-2.3-13.9-11.3-13.9c-6.9,0-18.9,4.6-18.9,24.9v40.8h-12.1V42.8z"/>
		<path class="st0" d="M992,42.8h11.4v10.6h0.3c2.6-4,8.8-12.7,21.7-12.7c12.9,0,17,8.2,19.1,12.2c6-7,10.8-12.2,22-12.2
			c7.7,0,22.2,4.2,22.2,25.2v51.9h-12.1V69.3c0-10.3-3-17.3-13.3-17.3c-10.2,0-16.9,10-16.9,20.1v45.7h-12.1V65.8
			c0-6.3-2.3-13.9-11.3-13.9c-6.9,0-18.9,4.6-18.9,24.9v40.8H992V42.8z"/>
		<path class="st0" d="M1135.6,40.6c22.9,0,33.4,20.2,33.4,39.5s-10.4,39.5-33.4,39.5c-22.9,0-33.4-20.2-33.4-39.5
			S1112.7,40.6,1135.6,40.6z M1135.6,108.8c17.3,0,20.9-18.6,20.9-28.6s-3.6-28.6-20.9-28.6c-17.3,0-20.9,18.6-20.9,28.6
			S1118.3,108.8,1135.6,108.8z"/>
		<path class="st0" d="M1181.7,117.7V14.8h12.1v37.4h0.3c5.2-7.9,12.4-11.5,20.7-11.6c19.1,0,29.9,16.3,29.9,37.4
			c0,17.9-7.1,41.8-31.6,41.8c-12.2,0-17.3-7.3-19.8-11.5h-0.3v9.3H1181.7z M1212.6,51.9c-17.4,0-19.4,19.6-19.4,31.8
			c0,19.9,11.9,25.2,19.6,25.2c13.2,0,19.4-12.5,19.4-28.9C1232.3,70.4,1231.3,51.9,1212.6,51.9z"/>
		<path class="st0" d="M1259.3,29.2V14.8h12.1v14.3H1259.3z M1271.4,117.7h-12.1V42.8h12.1V117.7z"/>
		<path class="st0" d="M1301.9,117.7h-12.1V14.8h12.1V117.7z"/>
		<path class="st0" d="M1320.2,29.2V14.8h12.1v14.3H1320.2z M1332.3,117.7h-12.1V42.8h12.1V117.7z"/>
		<path class="st0" d="M1358.3,85.3c0.3,17,10.7,24.1,22.8,24.1c8.6,0,13.9-1.6,18.4-3.6l2.1,9c-4.3,2-11.5,4.3-22.1,4.3
			c-20.5,0-32.7-14-32.7-35c0-20.9,11.8-37.4,31.2-37.4c21.7,0,27.5,19.9,27.5,32.7c0,2.6-0.3,4.6-0.4,5.9H1358.3z M1393.7,76.3
			c0.1-8-3.2-20.5-16.7-20.5c-12.2,0-17.6,11.7-18.5,20.5H1393.7z M1373.4,18.4l12.1,20.5h-8.6l-16.7-20.5H1373.4z"/>
		<path class="st0" d="M1432.9,117.7h-12.1V42.8h11.4v12.5h0.3c4.8-8.7,11.1-14.6,20.2-14.6c1.5,0,2.2,0.1,3.2,0.4v13h-4.5
			c-11.3,0-18.4,9.2-18.4,20.1V117.7z"/>
		<path class="st0" d="M1525.9,94.2c-0.4,3.6-3.7,14.2-12.8,20.5c-3.3,2.3-8,5.2-19.5,5.2c-20.2,0-32.1-15.9-32.1-37.5
			c0-23.2,10.7-41.7,34.5-41.7c20.7,0,30.9,17.2,30.9,43.7h-52.4c0,15.6,7,24.6,20.9,24.6c11.4,0,18.1-9.2,18.5-14.8H1525.9z
			 M1514.3,74.3c-0.7-11.6-5.4-22.3-20-22.3c-11.1,0-19.9,10.7-19.9,22.3H1514.3z"/>
		<path class="st0" d="M1579,65.5c0.5-17.9,11.9-24.9,29.7-24.9c5.8,0,26.6,1.7,26.6,20.9v43.1c0,3.2,1.5,4.4,4,4.4
			c1.1,0,2.6-0.3,4-0.6v9.2c-2.1,0.6-3.8,1.4-6.6,1.4c-10.7,0-12.4-5.7-12.8-11.5c-4.7,5.3-11.9,12.2-25.9,12.2
			c-13.2,0-22.5-8.7-22.5-21.6c0-6.3,1.8-20.9,21.8-23.5l19.9-2.6c2.9-0.3,6.3-1.4,6.3-8.9c0-7.9-5.5-12.2-16.9-12.2
			c-13.7,0-15.6,8.7-16.5,14.5H1579z M1623.2,79.4c-1.9,1.6-4.9,2.7-19.9,4.7c-5.9,0.9-15.4,2.7-15.4,12.2c0,8.2,4,13,13,13
			c11.3,0,22.2-7.6,22.2-17.6V79.4z"/>
		<path class="st0" d="M1702.5,117.7v-10.9l-0.3-0.3c-5.1,8.7-11.3,13.3-22.8,13.3c-10.6,0-23.3-5.3-23.3-23.2V42.8h12.1v49.7
			c0,12.3,6,16.5,13.9,16.5c15.2,0,19.8-14,19.8-24.9V42.8h12.1v74.9H1702.5z"/>
	</g>
	<g class="st4">
		<path class="st0" d="M759.3,224.4c0.1,5.7,2.9,16.6,20.9,16.6c9.7,0,20.6-2.4,20.6-13.3c0-8-7.4-10.2-17.8-12.7l-10.6-2.6
			c-15.9-3.9-31.3-7.6-31.3-30.2c0-11.5,5.9-31.7,37.9-31.7c30.2,0,38.3,20.6,38.4,33.2h-19.8c-0.5-4.6-2.2-15.5-20.2-15.5
			c-7.8,0-17.2,3-17.2,12.3c0,8,6.3,9.7,10.4,10.7l24,6.2c13.5,3.4,25.8,9.2,25.8,27.6c0,30.9-30.2,33.7-38.8,33.7
			c-36,0-42.1-21.6-42.1-34.4H759.3z"/>
	</g>
	<g>
		<path class="st0" d="M895.6,232.6c-0.4,3.6-3.7,14.2-12.8,20.5c-3.3,2.3-8,5.2-19.5,5.2c-20.2,0-32.1-15.9-32.1-37.5
			c0-23.2,10.7-41.7,34.5-41.7c20.7,0,30.9,17.2,30.9,43.7h-52.4c0,15.6,7,24.6,20.9,24.6c11.4,0,18.1-9.2,18.5-14.8H895.6z
			 M884,212.7c-0.7-11.6-5.4-22.3-20-22.3c-11.1,0-19.9,10.7-19.9,22.3H884z"/>
		<path class="st0" d="M924.7,256.1h-12.1v-74.9H924v12.5h0.3c4.8-8.7,11.1-14.6,20.2-14.6c1.5,0,2.2,0.1,3.2,0.4v13h-4.5
			c-11.3,0-18.4,9.2-18.4,20.1V256.1z"/>
		<path class="st0" d="M1006.2,181.2h13.2l-27.3,74.9h-12.9L953,181.2h14l18.7,61h0.3L1006.2,181.2z"/>
		<path class="st0" d="M1029.7,167.6v-14.3h12.1v14.3H1029.7z M1041.8,256.1h-12.1v-74.9h12.1V256.1z"/>
		<path class="st0" d="M1104.8,206.4c-1.5-10-6.9-16-17-16c-15,0-19.8,14.9-19.8,28.2c0,12.9,3,28.8,19.6,28.8
			c8.1,0,15.1-6.3,17.2-17.8h11.7c-1.2,11.9-8.2,28.6-29.2,28.6c-20.2,0-32.1-15.9-32.1-37.5c0-23.2,10.7-41.7,34.5-41.7
			c18.8,0,25.9,14.3,26.9,27.4H1104.8z"/>
		<path class="st0" d="M1189.5,232.6c-0.4,3.6-3.7,14.2-12.8,20.5c-3.3,2.3-8,5.2-19.5,5.2c-20.2,0-32.1-15.9-32.1-37.5
			c0-23.2,10.7-41.7,34.5-41.7c20.7,0,30.9,17.2,30.9,43.7H1138c0,15.6,7,24.6,20.9,24.6c11.4,0,18.1-9.2,18.5-14.8H1189.5z
			 M1177.9,212.7c-0.7-11.6-5.4-22.3-20-22.3c-11.1,0-19.9,10.7-19.9,22.3H1177.9z"/>
		<path class="st0" d="M1302.6,256.1h-11.4v-10.3h-0.3c-5.2,10.2-13.5,12.5-20.5,12.5c-24.4,0-31.6-23.9-31.6-41.8
			c0-21.1,10.8-37.4,29.9-37.4c13,0,18.5,8.5,21.4,12.7h0.3v-38.5h12.1V256.1z M1270.7,247.3c7.7,0,19.6-5.3,19.6-25.2
			c0-12.2-1.9-31.8-19.4-31.8c-18.7,0-19.6,18.5-19.6,28.1C1251.4,234.9,1257.6,247.3,1270.7,247.3z"/>
		<path class="st0" d="M1380.3,232.6c-0.4,3.6-3.7,14.2-12.8,20.5c-3.3,2.3-8,5.2-19.5,5.2c-20.2,0-32.1-15.9-32.1-37.5
			c0-23.2,10.7-41.7,34.5-41.7c20.7,0,30.9,17.2,30.9,43.7h-52.4c0,15.6,7,24.6,20.9,24.6c11.4,0,18.1-9.2,18.5-14.8H1380.3z
			 M1368.7,212.7c-0.7-11.6-5.4-22.3-20-22.3c-11.1,0-19.9,10.7-19.9,22.3H1368.7z"/>
		<path class="st0" d="M1436.4,202.5c-0.1-4.7-1.8-12.6-17-12.6c-3.7,0-14.3,1.3-14.3,10.6c0,6.2,3.7,7.6,13,10l12.1,3.2
			c15,3.9,20.2,9.6,20.2,19.8c0,15.5-12.2,24.8-28.4,24.8c-28.4,0-30.5-17.2-30.9-26.2h11.7c0.4,5.9,2.1,15.3,19.1,15.3
			c8.6,0,16.5-3.6,16.5-11.9c0-6-4-8-14.3-10.7l-14-3.6c-10-2.6-16.6-7.9-16.6-18.2c0-16.5,13-23.9,27.2-23.9
			c25.7,0,27.5,19.8,27.5,23.5H1436.4z"/>
	</g>
	<g class="st4">
		<path class="st0" d="M1517.9,256.1h-21.7l35.1-102.8h23.7l34.7,102.8h-22.4l-6.3-21.2h-36.4L1517.9,256.1z M1530.3,217.1h25.1
			l-12.2-40.7h-0.3L1530.3,217.1z"/>
	</g>
	<g>
		<path class="st0" d="M1647,181.2h13.2l-27.3,74.9h-12.9l-26.2-74.9h14l18.7,61h0.3L1647,181.2z"/>
		<path class="st0" d="M1696,179c22.9,0,33.4,20.2,33.4,39.5c0,19.3-10.4,39.5-33.4,39.5c-22.9,0-33.4-20.2-33.4-39.5
			C1662.6,199.2,1673.1,179,1696,179z M1696,247.2c17.3,0,20.9-18.6,20.9-28.6c0-10-3.6-28.6-20.9-28.6c-17.3,0-20.9,18.6-20.9,28.6
			C1675.1,228.6,1678.7,247.2,1696,247.2z"/>
		<path class="st0" d="M1788,206.4c-1.5-10-6.9-16-17-16c-15,0-19.8,14.9-19.8,28.2c0,12.9,3,28.8,19.6,28.8
			c8.1,0,15.1-6.3,17.2-17.8h11.7c-1.2,11.9-8.2,28.6-29.2,28.6c-20.2,0-32.1-15.9-32.1-37.5c0-23.2,10.7-41.7,34.5-41.7
			c18.8,0,25.9,14.3,26.9,27.4H1788z"/>
		<path class="st0" d="M1811.3,203.9c0.5-17.9,11.9-24.9,29.7-24.9c5.8,0,26.6,1.7,26.6,20.9v43.1c0,3.2,1.5,4.4,4,4.4
			c1.1,0,2.6-0.3,4-0.6v9.2c-2.1,0.6-3.8,1.4-6.6,1.4c-10.7,0-12.4-5.7-12.8-11.5c-4.7,5.3-11.9,12.2-25.9,12.2
			c-13.2,0-22.5-8.7-22.5-21.6c0-6.3,1.8-20.9,21.8-23.5l19.9-2.6c2.9-0.3,6.3-1.4,6.3-8.9c0-7.9-5.5-12.2-16.9-12.2
			c-13.7,0-15.6,8.7-16.5,14.5H1811.3z M1855.5,217.8c-1.9,1.6-4.9,2.7-19.9,4.7c-5.9,0.9-15.4,2.7-15.4,12.2c0,8.2,4,13,13,13
			c11.3,0,22.2-7.6,22.2-17.6V217.8z"/>
		<path class="st0" d="M1902.9,191.6v48.7c0,5.9,4.8,5.9,7.3,5.9h4.3v9.9c-4.4,0.4-7.8,1-9.1,1c-11.9,0-14.6-7-14.6-16v-49.4h-9.7
			v-10.5h9.7v-20.9h12.1v20.9h11.5v10.5H1902.9z"/>
		<path class="st0" d="M1967,202.5c-0.1-4.7-1.8-12.6-17-12.6c-3.7,0-14.3,1.3-14.3,10.6c0,6.2,3.7,7.6,13,10l12.1,3.2
			c15,3.9,20.2,9.6,20.2,19.8c0,15.5-12.2,24.8-28.4,24.8c-28.4,0-30.5-17.2-30.9-26.2h11.7c0.4,5.9,2.1,15.3,19.1,15.3
			c8.6,0,16.5-3.6,16.5-11.9c0-6-4-8-14.3-10.7l-14-3.6c-10-2.6-16.6-7.9-16.6-18.2c0-16.5,13-23.9,27.2-23.9
			c25.7,0,27.5,19.8,27.5,23.5H1967z"/>
	</g>
</g>
</svg>
