<svg id="Calque_1" data-name="Calque 1" xmlns="http://www.w3.org/2000/svg" xmlns:xlink="http://www.w3.org/1999/xlink" viewBox="0 0 192.05 137.3"><defs><clipPath id="clip-path" transform="translate(-3.97 -31.35)"><path d="M31.94,118.28c-5.82,0-10.54,5-10.54,11.27s4.72,11.27,10.54,11.27,10.54-5,10.54-11.27S37.76,118.28,31.94,118.28Zm0,17.24a6,6,0,0,1,0-11.94,6,6,0,0,1,0,11.94Z" fill="none"/></clipPath></defs><path d="M188.16,95.18c10.74-11.94-41.91-53.48-85.39-57.27-40-3.49-92.92,13.39-39.23,38.35C114.71,100,182.55,101.41,188.16,95.18Z" transform="translate(-3.97 -31.35)" fill="#a9dae6"/><path d="M11.76,93.12c19.17-19.91,59.44,1.11,93.9,6.22s90.51-3,90.36,19.4c-.14,23.89-12.57,37.33-80.75,43.75S15.89,149.12,7,128.06C0,111.67,6.63,98.44,11.76,93.12Z" transform="translate(-3.97 -31.35)" fill="#a9dae6"/><rect x="95.39" y="17.5" width="27.67" height="12.19" rx="1.22" fill="#34669a"/><path d="M102.71,59.2v6.73L110,58.18S102.86,59.2,102.71,59.2Z" transform="translate(-3.97 -31.35)" fill="#34669a"/><rect x="96.83" y="18.71" width="24.81" height="9.77" rx="1.03" fill="#fff"/><path d="M114.31,52.48h-11.2a.51.51,0,0,1-.5-.53.51.51,0,0,1,.5-.52h11.2a.5.5,0,0,1,.49.52A.51.51,0,0,1,114.31,52.48Z" transform="translate(-3.97 -31.35)" fill="#1a2021"/><rect x="98.64" y="22.55" width="21.33" height="0.59" rx="0.28" fill="#1a2021"/><rect x="98.64" y="23.69" width="21.33" height="0.59" rx="0.28" fill="#1a2021"/><rect x="114.46" y="26.91" width="1.2" height="1.16" rx="0.27" fill="#a3c5e9"/><rect x="116.64" y="26.91" width="1.2" height="1.16" rx="0.27" fill="#a3c5e9"/><rect x="118.83" y="26.91" width="1.2" height="1.16" rx="0.27" fill="#a3c5e9"/><path d="M106.23,95.14a38.7,38.7,0,0,0,1-5.64l-5.45-2.62c0-.56,0-1.11,0-1.67a32.64,32.64,0,0,0-.31-4.56l5.19-3.16A38.26,38.26,0,0,0,105.21,72l-6,.39a31.12,31.12,0,0,0-3-5.38l3.23-5.37a35.09,35.09,0,0,0-3.76-4.12l-5.11,3.3a28.25,28.25,0,0,0-5-3.3l.52-6.36a32.17,32.17,0,0,0-5.11-1.78L78,54.82a26.86,26.86,0,0,0-5-.47h-.8l-2.3-5.88a32.13,32.13,0,0,0-5.3,1l-.36,6.37a28.09,28.09,0,0,0-5.36,2.49l-4.6-4.07A35.54,35.54,0,0,0,50,57.71l2.45,5.82a30.76,30.76,0,0,0-3.66,4.86L43,67.07a38.55,38.55,0,0,0-2.28,5.21l4.7,3.93a32.52,32.52,0,0,0-1.12,6.13l-5.74,1.73c0,.38,0,.76,0,1.14a38.66,38.66,0,0,0,.27,4.6L44.64,91a32.23,32.23,0,0,0,1.66,6L42,101.34a37.57,37.57,0,0,0,2.72,5l5.7-1.89a30.84,30.84,0,0,0,4.07,4.46l-1.92,6a33.24,33.24,0,0,0,4.56,3l4.22-4.52a27.24,27.24,0,0,0,5.55,1.94l.92,6.3a32,32,0,0,0,5.21.42h.15L74.93,116a26.76,26.76,0,0,0,5.75-1l3.56,5.13a34,34,0,0,0,4.93-2.29l-1.08-6.28a30,30,0,0,0,4.64-3.79l5.37,2.78a37.27,37.27,0,0,0,3.38-4.48l-3.68-5a32.21,32.21,0,0,0,2.47-5.66ZM73,100.39c-7.84,0-14.2-6.8-14.2-15.18S65.16,70,73,70s14.2,6.8,14.2,15.18S80.84,100.39,73,100.39Z" transform="translate(-3.97 -31.35)" fill="#03b1b9"/><path d="M52.89,101.75a.36.36,0,0,1-.29-.16,27.06,27.06,0,0,1-2.16-3.68.41.41,0,0,1,.15-.54.36.36,0,0,1,.5.17,28.42,28.42,0,0,0,2.1,3.58.42.42,0,0,1-.07.55A.4.4,0,0,1,52.89,101.75Z" transform="translate(-3.97 -31.35)" fill="#fff"/><path d="M69.92,112.46h0A24.76,24.76,0,0,1,57.62,107a.4.4,0,0,1-.07-.55.35.35,0,0,1,.52-.08A24,24,0,0,0,70,111.67a.39.39,0,0,1,.32.44A.38.38,0,0,1,69.92,112.46Z" transform="translate(-3.97 -31.35)" fill="#fff"/><rect x="69.5" y="35.54" width="67.39" height="39.97" fill="#34669a"/><rect x="70.24" y="36.41" width="64.72" height="36.4" fill="#fff"/><path d="M136.62,101.3H75.24a.15.15,0,0,1-.14-.16V68.27a.15.15,0,0,1,.14-.16h61.38a.16.16,0,0,1,.15.16v32.87A.16.16,0,0,1,136.62,101.3ZM75.39,101h61.08V68.43H75.39Z" transform="translate(-3.97 -31.35)" fill="#a9dae6"/><path d="M136.62,95.82H75.24a.15.15,0,0,1-.14-.15.15.15,0,0,1,.14-.16h61.38a.16.16,0,0,1,.15.16A.15.15,0,0,1,136.62,95.82Z" transform="translate(-3.97 -31.35)" fill="#a9dae6"/><path d="M136.62,90.35H75.24a.15.15,0,0,1-.14-.16.15.15,0,0,1,.14-.16h61.38a.16.16,0,0,1,.15.16A.16.16,0,0,1,136.62,90.35Z" transform="translate(-3.97 -31.35)" fill="#a9dae6"/><path d="M136.62,84.87H75.24a.16.16,0,0,1,0-.32h61.38a.16.16,0,0,1,0,.32Z" transform="translate(-3.97 -31.35)" fill="#a9dae6"/><path d="M136.62,79.39H75.24a.16.16,0,0,1,0-.32h61.38a.16.16,0,0,1,0,.32Z" transform="translate(-3.97 -31.35)" fill="#a9dae6"/><path d="M136.62,73.91H75.24a.16.16,0,0,1,0-.32h61.38a.16.16,0,0,1,0,.32Z" transform="translate(-3.97 -31.35)" fill="#a9dae6"/><path d="M126.39,101.3a.16.16,0,0,1-.15-.16V68.27a.15.15,0,1,1,.3,0v32.87A.16.16,0,0,1,126.39,101.3Z" transform="translate(-3.97 -31.35)" fill="#a9dae6"/><path d="M116.16,101.3a.16.16,0,0,1-.15-.16V68.27a.15.15,0,1,1,.3,0v32.87A.16.16,0,0,1,116.16,101.3Z" transform="translate(-3.97 -31.35)" fill="#a9dae6"/><path d="M105.93,101.3a.16.16,0,0,1-.15-.16V68.27a.15.15,0,1,1,.3,0v32.87A.16.16,0,0,1,105.93,101.3Z" transform="translate(-3.97 -31.35)" fill="#a9dae6"/><path d="M95.7,101.3a.16.16,0,0,1-.15-.16V68.27a.15.15,0,1,1,.3,0v32.87A.16.16,0,0,1,95.7,101.3Z" transform="translate(-3.97 -31.35)" fill="#a9dae6"/><path d="M85.47,101.3a.16.16,0,0,1-.15-.16V68.27a.16.16,0,0,1,.15-.16.15.15,0,0,1,.15.16v32.87A.15.15,0,0,1,85.47,101.3Z" transform="translate(-3.97 -31.35)" fill="#a9dae6"/><path d="M75.24,101.46a.28.28,0,0,1-.26-.17.32.32,0,0,1,.13-.43L85.3,95.4,90.56,90l4.88-10.91a.23.23,0,0,1,.07-.1l5.54-5.28a.29.29,0,0,1,.26-.08.31.31,0,0,1,.21.18l4.68,10.75,5.55,10.56L115.94,90a.26.26,0,0,1,.21-.11.29.29,0,0,1,.22.09l4.76,5.12,5-16a.35.35,0,0,1,.07-.12l10.23-11a.27.27,0,0,1,.42,0,.33.33,0,0,1,0,.45L126.65,79.4l-5.1,16.37a.31.31,0,0,1-.22.2.27.27,0,0,1-.28-.08l-4.87-5.24-4.25,5.22a.3.3,0,0,1-.26.11.31.31,0,0,1-.23-.16l-5.77-11v0l-4.51-10.37-5.21,5-4.87,10.9-.06.1-5.33,5.47s-.05,0-.07.06l-10.23,5.48A.35.35,0,0,1,75.24,101.46Z" transform="translate(-3.97 -31.35)" fill="#03b1b9"/><path d="M75.24,101.46a.27.27,0,0,1-.2-.09.34.34,0,0,1,0-.45L90,84.49a.28.28,0,0,1,.42,0l5.25,5.27,10-10.74a.28.28,0,0,1,.42,0l5.11,5.26L116,79a.28.28,0,0,1,.21-.1.25.25,0,0,1,.21.1l9.94,10.64,10.05-21.52a.28.28,0,0,1,.39-.14.33.33,0,0,1,.14.42L126.66,90.33a.32.32,0,0,1-.22.17.29.29,0,0,1-.26-.09l-10-10.73-4.7,5.25a.27.27,0,0,1-.21.09.29.29,0,0,1-.21-.08l-5.11-5.27-10,10.74a.28.28,0,0,1-.41,0l-5.25-5.27L75.46,101.37A.31.31,0,0,1,75.24,101.46Z" transform="translate(-3.97 -31.35)" fill="#278da5"/><path d="M54.21,19.68H75.84a.76.76,0,0,1,.76.76v30.4a5,5,0,0,1-5,5H53.45a0,0,0,0,1,0,0V20.44A.76.76,0,0,1,54.21,19.68Z" fill="#34669a"/><path d="M54.43,20.29H75.1a.72.72,0,0,1,.72.72V50.08a4.75,4.75,0,0,1-4.75,4.75H53.71a0,0,0,0,1,0,0V21A.72.72,0,0,1,54.43,20.29Z" fill="#fff"/><path d="M70.69,79.1v-.62a.82.82,0,0,0-.72-.89H47.81a.82.82,0,0,0-.72.89v.62c0,4.42,2.89,8,6.46,8H76.2C72.63,87.1,70.65,83.92,70.69,79.1Z" transform="translate(-3.97 -31.35)" fill="#34669a"/><path d="M70.15,79.72v-.5a.69.69,0,0,0-.67-.72H48.72a.7.7,0,0,0-.68.72v.5a6.27,6.27,0,0,0,6.05,6.47H76.2C72.86,86.19,70.15,84.46,70.15,79.72Z" transform="translate(-3.97 -31.35)" fill="#fff"/><path d="M77.47,66.06H61.68a1,1,0,0,1-.91-1V55.92a.94.94,0,0,1,.91-1H77.47a.94.94,0,0,1,.91,1v9.17A1,1,0,0,1,77.47,66.06ZM61.68,55.26a.64.64,0,0,0-.61.66v9.17a.63.63,0,0,0,.61.65H77.47a.63.63,0,0,0,.61-.65V55.92a.64.64,0,0,0-.61-.66Z" transform="translate(-3.97 -31.35)" fill="#34669a"/><path d="M72.22,70.51H54.86a.47.47,0,0,1-.44-.48.46.46,0,0,1,.44-.48H72.22a.46.46,0,0,1,.45.48A.47.47,0,0,1,72.22,70.51Z" transform="translate(-3.97 -31.35)" fill="#1a2021"/><path d="M72.22,72.26H54.86a.47.47,0,0,1-.44-.48.46.46,0,0,1,.44-.48H72.22a.46.46,0,0,1,.45.48A.47.47,0,0,1,72.22,72.26Z" transform="translate(-3.97 -31.35)" fill="#1a2021"/><path d="M72.22,73.94H54.86a.48.48,0,0,1,0-1H72.22a.48.48,0,0,1,0,1Z" transform="translate(-3.97 -31.35)" fill="#1a2021"/><rect x="68.38" y="25.06" width="1.02" height="0.98" rx="0.23" fill="#34669a"/><rect x="70.24" y="25.06" width="1.02" height="0.98" rx="0.23" fill="#34669a"/><rect x="72.11" y="25.06" width="1.02" height="0.98" rx="0.23" fill="#34669a"/><rect x="58.53" y="29.15" width="2.34" height="4.12" fill="#03b1b9"/><rect x="64.97" y="29.5" width="2.34" height="3.78" fill="#03b1b9"/><rect x="68.7" y="27.81" width="2.34" height="5.47" fill="#03b1b9"/><rect x="61.68" y="30.78" width="2.34" height="2.5" fill="#03b1b9"/><path d="M162.12,117.07h8.32c0,4.88-3.76,8.89-8.32,8.89s-8.32-4-8.32-8.89,3.75-8.9,8.32-8.9Z" transform="translate(-3.97 -31.35)" fill="#1a2021"/><path d="M171.83,115.82a8.62,8.62,0,0,0-8.32-8.89v8.89Z" transform="translate(-3.97 -31.35)" fill="#34669a"/><ellipse cx="97.28" cy="42.59" rx="0.74" ry="0.79" fill="none" stroke="#34669a" stroke-miterlimit="10"/><ellipse cx="86.31" cy="53.36" rx="0.74" ry="0.79" fill="none" stroke="#34669a" stroke-miterlimit="10"/><ellipse cx="101.96" cy="47.88" rx="0.74" ry="0.79" fill="none" stroke="#34669a" stroke-miterlimit="10"/><ellipse cx="112.19" cy="47.88" rx="0.74" ry="0.79" fill="none" stroke="#34669a" stroke-miterlimit="10"/><ellipse cx="122.42" cy="47.88" rx="0.74" ry="0.79" fill="none" stroke="#34669a" stroke-miterlimit="10"/><rect x="0.79" y="30.28" width="2.65" height="15.45" fill="#34669a"/><rect x="12.02" y="34.77" width="2.65" height="10.96" fill="#34669a"/><rect x="17.63" y="30.28" width="2.65" height="15.45" fill="#34669a"/><rect x="23.25" y="40.25" width="2.65" height="5.48" fill="#34669a"/><rect x="6.4" y="25.57" width="2.65" height="20.16" fill="#34669a"/><rect x="154.77" y="31.52" width="2.65" height="8.2" fill="#34669a"/><rect x="166" y="20.54" width="2.65" height="19.18" fill="#34669a"/><rect x="171.62" y="31.1" width="2.65" height="8.62" fill="#34669a"/><rect x="177.23" y="28.66" width="2.65" height="11.06" fill="#34669a"/><rect x="160.39" y="26.11" width="2.65" height="13.61" fill="#34669a"/><g clip-path="url(#clip-path)"><path d="M41.47,135.78l-9.53-6.23-1.73,11.8A11,11,0,0,0,41.47,135.78Z" transform="translate(-3.97 -31.35)" fill="#cde9f0"/><path d="M41.48,135.76l.06-.1a12.65,12.65,0,0,0,.24-11.75c-3.37,1.88-1.36.74-9.84,5.64C41.48,135.79,40,134.83,41.48,135.76Z" transform="translate(-3.97 -31.35)" fill="#03b1b9"/><path d="M21.46,125.42l10.48,4.13,9.83-5.68C37.17,114.78,24.8,115.87,21.46,125.42Z" transform="translate(-3.97 -31.35)" fill="#1a2021"/><path d="M30.21,141.35l1.73-11.8-10.48-4.13C19,132.56,23.39,140.2,30.21,141.35Z" transform="translate(-3.97 -31.35)" fill="#34669a"/><path d="M42,135.64A13.13,13.13,0,0,0,42.26,124h0l-.18-.35v0l-.14-.29h0a11.79,11.79,0,0,0-4.6-4.78,10.92,10.92,0,0,0-6.14-1.34,11.55,11.55,0,0,0-9.94,7.66h0l-.13.37-.13.38h0a13,13,0,0,0,1,10.07,11.62,11.62,0,0,0,7.82,5.94h0l.37.06.36.06h0a9.82,9.82,0,0,0,1.43.1,10.91,10.91,0,0,0,4.85-1.15,11.78,11.78,0,0,0,4.8-4.44h0l.08-.13.11-.21.06-.09v0h0l.12-.2Zm-1.12-10.77.77-.43a12.29,12.29,0,0,1-.27,10.78l-.07,0-1.34-.86-7.26-4.75,6-3.48Zm-18.9.32a10.8,10.8,0,0,1,9.29-7.14,10.47,10.47,0,0,1,10,5.66l-2.9,1.68L35.52,127,32,129l-.09.05-.29-.19,0,.11-4.59-1.81Zm.66,10.14a12.09,12.09,0,0,1-.92-9.4l6.9,2.72,2.94,1.16-1.62,11.08A10.88,10.88,0,0,1,22.61,135.33Zm8,5.68,1.58-10.81,4.11,2.69,3.2,2.09,1.42.93A10.49,10.49,0,0,1,30.64,141Z" transform="translate(-3.97 -31.35)" fill="#e7f3fd"/></g><path d="M21.15,157.16a3.44,3.44,0,0,1-3.32,3.55,3.56,3.56,0,0,1,0-7.11A3.45,3.45,0,0,1,21.15,157.16Z" transform="translate(-3.97 -31.35)" fill="#03b1b9"/><path d="M20.28,157.32a1.67,1.67,0,1,1-1.67-1.79A1.73,1.73,0,0,1,20.28,157.32Z" transform="translate(-3.97 -31.35)" fill="#fff"/><rect x="136.97" y="102.89" width="12.65" height="13.52" rx="2.27" fill="#1a2021"/><path d="M155.24,150.23H147a2.66,2.66,0,0,1-2.57-2.74v-8.83a2.66,2.66,0,0,1,2.57-2.74h8.25a2.66,2.66,0,0,1,2.57,2.74v8.83A2.66,2.66,0,0,1,155.24,150.23ZM147,136.71a1.9,1.9,0,0,0-1.83,1.95v8.83a1.89,1.89,0,0,0,1.83,1.95h8.25a1.89,1.89,0,0,0,1.83-1.95v-8.83a1.9,1.9,0,0,0-1.83-1.95Z" transform="translate(-3.97 -31.35)" fill="#fff"/><path d="M59.67,129.49l-2.11-2.6a1,1,0,0,1,.09-1.34l2.43-2.25a.86.86,0,0,1,1.26.1L63.45,126a1,1,0,0,1-.09,1.35l-2.43,2.25A.86.86,0,0,1,59.67,129.49Z" transform="translate(-3.97 -31.35)" fill="#03b1b9"/><path d="M137.72,37.77l-2.11-2.59a1,1,0,0,1,.09-1.35l2.43-2.25a.86.86,0,0,1,1.26.1l2.11,2.59a1,1,0,0,1-.09,1.35L139,37.87A.86.86,0,0,1,137.72,37.77Z" transform="translate(-3.97 -31.35)" fill="#03b1b9"/><path d="M72.33,131.67a1.86,1.86,0,1,1-1.86-2A1.93,1.93,0,0,1,72.33,131.67Z" transform="translate(-3.97 -31.35)" fill="#03b1b9"/><path d="M41.92,43.34l-2.11-2.6a1,1,0,0,1,.09-1.34l2.43-2.26a.87.87,0,0,1,1.26.1l2.1,2.6a1,1,0,0,1-.09,1.34l-2.43,2.25A.84.84,0,0,1,41.92,43.34Z" transform="translate(-3.97 -31.35)" fill="#03b1b9"/><path d="M54.58,45.51a1.87,1.87,0,1,1-1.86-2A1.93,1.93,0,0,1,54.58,45.51Z" transform="translate(-3.97 -31.35)" fill="#03b1b9"/><path d="M151.23,166.67a1.86,1.86,0,1,1-1.85-2A1.92,1.92,0,0,1,151.23,166.67Z" transform="translate(-3.97 -31.35)" fill="#03b1b9"/><path d="M183.62,85.08a1.86,1.86,0,1,1-1.86-2A1.93,1.93,0,0,1,183.62,85.08Z" transform="translate(-3.97 -31.35)" fill="#03b1b9"/><ellipse cx="173.42" cy="103.38" rx="1.45" ry="1.55" fill="#03b1b9"/><ellipse cx="132.01" cy="20.29" rx="1.45" ry="1.55" fill="#03b1b9"/><rect x="132.01" y="43.78" width="31.94" height="15.43" rx="0.63" fill="#34669a"/><rect x="132.88" y="47.83" width="30.19" height="10.65" rx="0.51" fill="#fff"/><rect x="133.33" y="44.91" width="1.25" height="1.2" rx="0.28" fill="#fff"/><rect x="135.6" y="44.91" width="1.25" height="1.2" rx="0.28" fill="#fff"/><rect x="137.88" y="44.91" width="1.25" height="1.2" rx="0.28" fill="#fff"/><path d="M165.83,81.51h-16a.51.51,0,0,1,0-1h16a.51.51,0,0,1,0,1Z" transform="translate(-3.97 -31.35)" fill="#1a2021"/><path d="M153.81,89.39h-16a.51.51,0,0,1,0-1h16a.51.51,0,0,1,0,1Z" transform="translate(-3.97 -31.35)" fill="#1a2021"/><rect x="150.96" y="57.02" width="1.98" height="1.02" rx="0.17" fill="#1a2021"/><rect x="153.46" y="57.02" width="1.98" height="1.02" rx="0.17" fill="#1a2021"/><path d="M166,83.74H139.53a.34.34,0,0,1-.32-.35.33.33,0,0,1,.32-.34H166a.33.33,0,0,1,.32.34A.34.34,0,0,1,166,83.74Z" transform="translate(-3.97 -31.35)" fill="#1a2021"/><path d="M166,85.24H139.53a.35.35,0,0,1,0-.7H166a.35.35,0,0,1,0,.7Z" transform="translate(-3.97 -31.35)" fill="#1a2021"/><ellipse cx="14.63" cy="71.5" rx="3.67" ry="3.92" fill="#03b1b9"/><ellipse cx="115.43" cy="6.87" rx="3.67" ry="3.92" fill="#03b1b9"/><path d="M34.32,86.44H8a.53.53,0,0,1,0-1H34.32a.53.53,0,0,1,0,1Z" transform="translate(-3.97 -31.35)" fill="#34669a"/><path d="M34.32,89.05H8a.5.5,0,0,1-.49-.52A.51.51,0,0,1,8,88H34.32a.51.51,0,0,1,.49.53A.5.5,0,0,1,34.32,89.05Z" transform="translate(-3.97 -31.35)" fill="#34669a"/><path d="M128.19,126.25c.07-.72.11-1.45.11-2.2q0-.58,0-1.17l-3.4-1.18a16.58,16.58,0,0,0-1.21-4.35l2.26-3a19.66,19.66,0,0,0-1.79-2.78l-3.4,1.19a15.13,15.13,0,0,0-3.37-2.77l.19-3.82a17.15,17.15,0,0,0-3-1.13l-2.1,3.1A14,14,0,0,0,110,108a14.22,14.22,0,0,0-1.73.1l-1.94-3.21a16.42,16.42,0,0,0-3,1v3.83a15.18,15.18,0,0,0-3.5,2.57l-3.34-1.37a19.72,19.72,0,0,0-1.93,2.67l2.11,3.09a17,17,0,0,0-1.42,4.29l-3.45,1a20,20,0,0,0-.12,2.2q0,.58,0,1.17l3.41,1.18a17.15,17.15,0,0,0,1.2,4.36l-2.26,3a20,20,0,0,0,1.79,2.78l3.4-1.19a15.36,15.36,0,0,0,3.37,2.77l-.19,3.83a17.11,17.11,0,0,0,3,1.12l2.1-3.1a13.81,13.81,0,0,0,4.25.12l2,3.21a16.56,16.56,0,0,0,3-.95v-3.83a15.24,15.24,0,0,0,3.51-2.57l3.34,1.37a19.9,19.9,0,0,0,1.92-2.67l-2.11-3.09a16.69,16.69,0,0,0,1.42-4.28ZM110,131.74a7.71,7.71,0,1,1,7.2-7.69A7.45,7.45,0,0,1,110,131.74Z" transform="translate(-3.97 -31.35)" fill="#03b1b9"/><path d="M119.77,132.93a.35.35,0,0,1-.23-.09.42.42,0,0,1-.05-.56,13.61,13.61,0,0,0,2.12-12.43.41.41,0,0,1,.23-.5.37.37,0,0,1,.48.25,14.47,14.47,0,0,1,.69,4.45,14.31,14.31,0,0,1-3,8.74A.38.38,0,0,1,119.77,132.93Z" transform="translate(-3.97 -31.35)" fill="#fff"/><path d="M118.73,114.78a.36.36,0,0,1-.25-.11,11.94,11.94,0,0,0-4.15-2.73.41.41,0,0,1-.22-.51.37.37,0,0,1,.47-.24,12.72,12.72,0,0,1,4.41,2.9.43.43,0,0,1,0,.56A.34.34,0,0,1,118.73,114.78Z" transform="translate(-3.97 -31.35)" fill="#fff"/><path d="M107.17,111.57a.38.38,0,0,1-.36-.3.4.4,0,0,1,.27-.48,12.3,12.3,0,0,1,3.14-.41.4.4,0,0,1,0,.79,11.35,11.35,0,0,0-3,.39Z" transform="translate(-3.97 -31.35)" fill="#fff"/></svg>