<svg id="Calque_1" data-name="Calque 1" xmlns="http://www.w3.org/2000/svg" viewBox="0 0 195.19 144.45"><path d="M179,169.79c20.77-15.79,30-59.59-3.71-81.06C152.93,74.52,139,82.62,113.92,73.22,83.26,61.75,78.69,27.07,41.39,44.13c-19.76,9-33.46,34.51-35.87,63.45-2.36,28.35,7.69,47.8,28.22,61.1C82,170.74,130.25,170.36,179,169.79Z" transform="translate(-2.41 -27.77)" fill="#a9dae6"/><path d="M93.63,45.22c-3.14,12.6,8.51,25.07,20.78,30.24s26.35,4.56,39.5,2.09c5.67-1.06,11.51-2.56,15.91-6.18s7-9.89,4.55-15c-2.13-4.47-7.32-6.76-12.27-7.94s-10.2-1.66-14.61-4.13c-4.18-2.35-7.14-6.24-10.78-9.32-6.71-5.68-16.15-8.5-24.88-6.7S96.3,34.52,93.63,45.22Z" transform="translate(-2.41 -27.77)" fill="#c1e4eb"/><path d="M187.6,103.16V93.63H184A18.59,18.59,0,0,0,182,89l2.56-2.56-6.74-6.74L175.3,82.2a18.94,18.94,0,0,0-4.68-1.94V76.65h-9.53v3.61a19,19,0,0,0-4.69,1.94l-2.55-2.55-6.74,6.74L149.66,89a18.56,18.56,0,0,0-1.94,4.68h-3.61v9.53h3.61a18.41,18.41,0,0,0,1.94,4.68l-2.55,2.56,6.74,6.74,2.55-2.55a19,19,0,0,0,4.69,1.94v3.61h9.53v-3.61a18.94,18.94,0,0,0,4.68-1.94l2.56,2.55,6.74-6.74L182,107.84a18.44,18.44,0,0,0,2-4.68Zm-21.74,3.49a8.26,8.26,0,1,1,8.25-8.26A8.26,8.26,0,0,1,165.86,106.65Z" transform="translate(-2.41 -27.77)" fill="#278da5"/><path d="M158.81,127,157,122.31l-1.79.69a9.86,9.86,0,0,0-1.85-2l.78-1.75-4.63-2.06-.78,1.75a10.07,10.07,0,0,0-2.69-.07l-.69-1.79-4.73,1.81.69,1.79a9.85,9.85,0,0,0-2,1.86l-1.76-.78-2.06,4.62,1.76.79a9.66,9.66,0,0,0-.08,2.69l-1.79.69,1.81,4.72,1.8-.69a9.86,9.86,0,0,0,1.85,2l-.78,1.75,4.63,2.06.78-1.75a10.07,10.07,0,0,0,2.69.07l.69,1.79,4.72-1.81-.68-1.79a10.13,10.13,0,0,0,1.95-1.86l1.75.78,2.06-4.62-1.75-.78a9.75,9.75,0,0,0,.07-2.7Zm-10.12,5.87a4.39,4.39,0,1,1,2.52-5.67A4.4,4.4,0,0,1,148.69,132.91Z" transform="translate(-2.41 -27.77)" fill="none" stroke="#03b1b9" stroke-miterlimit="10"/><path d="M143.32,110.46l-1.22-3.19-1.21.46a6.86,6.86,0,0,0-1.26-1.32l.53-1.18-3.12-1.4-.53,1.19a6.52,6.52,0,0,0-1.82,0l-.47-1.21L131,105l.46,1.22a6.53,6.53,0,0,0-1.32,1.25l-1.18-.53-1.39,3.13,1.18.52a6.93,6.93,0,0,0-.05,1.82l-1.21.47,1.23,3.19,1.21-.46a6.81,6.81,0,0,0,1.25,1.32l-.53,1.18,3.13,1.39.53-1.18a6.5,6.5,0,0,0,1.82,0l.46,1.21,3.19-1.23-.46-1.21a6.81,6.81,0,0,0,1.32-1.25l1.19.53,1.39-3.13-1.19-.53a6.5,6.5,0,0,0,.05-1.82Zm-6.84,4a3,3,0,1,1,1.71-3.83A3,3,0,0,1,136.48,114.43Z" transform="translate(-2.41 -27.77)" fill="none" stroke="#03b1b9" stroke-miterlimit="10"/><path d="M142.21,54.55a15.06,15.06,0,1,1-15.06-15A15.06,15.06,0,0,1,142.21,54.55Z" transform="translate(-2.41 -27.77)" fill="#03b1b9"/><circle cx="127.15" cy="49.6" r="4.93" transform="translate(-7.53 -11.82) rotate(-7.04)" fill="#fff"/><path d="M136.49,64.47a15.07,15.07,0,0,1-18.67,0c1-4.24,1.85-7.9,2.77-8.82,1.3-1.31,4.76-2.06,6.56-2.06s5.42.92,6.09,1.59C134.6,56.54,135.78,60.3,136.49,64.47Z" transform="translate(-2.41 -27.77)" fill="#fff"/><path d="M105.52,91.67V84.23a3.67,3.67,0,0,1,3.67-3.67h23.42a3.67,3.67,0,0,1,3.68,3.67v7.44a3.67,3.67,0,0,1-3.68,3.67H109.19A3.66,3.66,0,0,1,105.52,91.67Z" transform="translate(-2.41 -27.77)" fill="#03b1b9"/><polyline points="113 63.51 101.67 74.55 120.04 65.27" fill="#03b1b9"/><path d="M108.36,84.05v0a.55.55,0,0,1,.54-.55h11.59A.55.55,0,0,1,121,84v0a.55.55,0,0,1-.54.55H108.9A.55.55,0,0,1,108.36,84.05Z" transform="translate(-2.41 -27.77)" fill="#fff"/><path d="M121.55,84.05v0a.55.55,0,0,1,.55-.55h10.11a.55.55,0,0,1,.54.55v0a.55.55,0,0,1-.54.55H122.1A.55.55,0,0,1,121.55,84.05Z" transform="translate(-2.41 -27.77)" fill="#fff"/><path d="M117.14,86.54v0a.55.55,0,0,1,.55-.55h14.52a.55.55,0,0,1,.54.55v0a.55.55,0,0,1-.54.55H117.69A.55.55,0,0,1,117.14,86.54Z" transform="translate(-2.41 -27.77)" fill="#fff"/><path d="M108.36,86.54v0a.55.55,0,0,1,.54-.55h6.49a.55.55,0,0,1,.55.55v0a.55.55,0,0,1-.55.55H108.9A.55.55,0,0,1,108.36,86.54Z" transform="translate(-2.41 -27.77)" fill="#fff"/><path d="M119.16,89v0a.55.55,0,0,1,.54-.55h12.51a.55.55,0,0,1,.54.55v0a.54.54,0,0,1-.54.54H119.7A.54.54,0,0,1,119.16,89Z" transform="translate(-2.41 -27.77)" fill="#fff"/><path d="M108.36,89v0a.55.55,0,0,1,.54-.55h8.64a.55.55,0,0,1,.55.55v0a.55.55,0,0,1-.55.54H108.9A.54.54,0,0,1,108.36,89Z" transform="translate(-2.41 -27.77)" fill="#fff"/><path d="M108.36,91.52v0a.55.55,0,0,1,.54-.55h3.21a.55.55,0,0,1,.55.55v0a.55.55,0,0,1-.55.54H108.9A.54.54,0,0,1,108.36,91.52Z" transform="translate(-2.41 -27.77)" fill="#fff"/><path d="M113.79,91.52v0a.55.55,0,0,1,.55-.55h17.87a.55.55,0,0,1,.54.55v0a.54.54,0,0,1-.54.54H114.34A.55.55,0,0,1,113.79,91.52Z" transform="translate(-2.41 -27.77)" fill="#fff"/><circle cx="34.56" cy="75.03" r="14.49" transform="translate(-50.46 46.94) rotate(-65.05)" fill="#03b1b9"/><circle cx="28.74" cy="54.37" r="3.51" fill="#fff"/><polygon points="26.89 55.63 26.72 53.4 28.57 52.14 30.58 53.11 30.75 55.34 28.91 56.6 26.89 55.63" fill="#03b1b9"/><circle cx="35.56" cy="40.15" r="3.51" fill="#fff"/><polygon points="33.82 41.2 33.94 38.37 36.08 36.5 38.09 37.47 37.97 40.3 35.83 42.16 33.82 41.2" fill="#03b1b9"/><path d="M33.57,80.52l-2.68-1.29,2-4.58c.13-.29.27-.57.41-.85l2.34-4.41,2.68,1.29-1.91,4.5c-.15.35-.31.69-.49,1Z" transform="translate(-2.41 -27.77)" fill="#fff"/><path d="M44.62,82.83c.52-.24,8.83.14,8.83.14l-6-5.5Z" transform="translate(-2.41 -27.77)" fill="#03b1b9"/><circle cx="68.23" cy="44.89" r="14.24" transform="translate(-2.46 61.92) rotate(-66.61)" fill="#03b1b9"/><rect x="65.35" y="4.98" width="0.95" height="11.96" fill="#fff"/><rect x="62.5" y="42.49" width="0.95" height="12.12" transform="translate(56.49 100.19) rotate(-124.69)" fill="#fff"/><path d="M69.54,44.89a1.31,1.31,0,1,1-1.31-1.31A1.31,1.31,0,0,1,69.54,44.89Z" transform="translate(-2.41 -27.77)" fill="#fff"/><path d="M106.88,141.29c-.84-13,4.85-26.48,14.45-34.19C121.62,120.18,116,133.42,106.88,141.29Z" transform="translate(-2.41 -27.77)" fill="#03b1b9"/><path d="M119.76,110.6a172.33,172.33,0,0,0-10.44,23.55C105.79,144,103,154.5,97,162.78" transform="translate(-2.41 -27.77)" fill="none" stroke="#278da5" stroke-miterlimit="10"/><path d="M103.86,149.48c4.85-10.86,14.49-19.06,25.11-21.39C124.45,139.73,114.28,148.61,103.86,149.48Z" transform="translate(-2.41 -27.77)" fill="#03b1b9"/><path d="M126.36,130.49q-10.87,9.57-22.13,18.61" transform="translate(-2.41 -27.77)" fill="none" stroke="#278da5" stroke-miterlimit="10"/><path d="M101,158.94c6.49-9.69,18.46-14.74,28.36-12C122.06,156.53,110.07,161.59,101,158.94Z" transform="translate(-2.41 -27.77)" fill="#03b1b9"/><path d="M127,147.66a94.24,94.24,0,0,1-27.13,11.61" transform="translate(-2.41 -27.77)" fill="none" stroke="#6f8bbf" stroke-linecap="round" stroke-miterlimit="10"/><path d="M104.5,146.19c2.07-10.91-1-23.07-8-31.11C93.7,125.8,96.41,138.36,104.5,146.19Z" transform="translate(-2.41 -27.77)" fill="#03b1b9"/><path d="M97.25,117.86a117.89,117.89,0,0,0,7.55,28.94" transform="translate(-2.41 -27.77)" fill="none" stroke="#278da5" stroke-miterlimit="10"/><path d="M100.94,155.48c-.89-11.22-6.63-21.75-15-27.56a48,48,0,0,0,4.57,16.87C93.35,150.77,97.59,154.56,100.94,155.48Z" transform="translate(-2.41 -27.77)" fill="#03b1b9"/><path d="M87.15,130.19a88.73,88.73,0,0,0,14,25.52" transform="translate(-2.41 -27.77)" fill="none" stroke="#278da5" stroke-miterlimit="10"/><path d="M165.85,152.79c4.59-11.94,15.14-21.62,26.78-24.57C187.53,140,177.12,149.48,165.85,152.79Z" transform="translate(-2.41 -27.77)" fill="#03b1b9"/><path d="M189.81,130.7a169.31,169.31,0,0,0-18.87,16.71c-7.17,7.36-13.93,15.56-22.66,20.47" transform="translate(-2.41 -27.77)" fill="none" stroke="#278da5" stroke-miterlimit="10"/><path d="M159.82,158.84c8.75-7.69,20.62-11.07,31-8.8C182,158.56,169.39,162.32,159.82,158.84Z" transform="translate(-2.41 -27.77)" fill="#03b1b9"/><path d="M187.5,151.11q-13.55,4.09-27.2,7.55" transform="translate(-2.41 -27.77)" fill="none" stroke="#278da5" stroke-miterlimit="10"/><path d="M153.41,166.1c9.71-6,22.35-5.6,30,.9C173,172.55,160.35,172.17,153.41,166.1Z" transform="translate(-2.41 -27.77)" fill="#03b1b9"/><path d="M181,166.65a91.24,91.24,0,0,1-28.74-.73" transform="translate(-2.41 -27.77)" fill="none" stroke="#278da5" stroke-miterlimit="10"/><path d="M161.74,156.17c6.3-8.87,8.54-21,5.71-31C160.55,133.6,157.79,145.89,161.74,156.17Z" transform="translate(-2.41 -27.77)" fill="#03b1b9"/><path d="M166.94,128a116.64,116.64,0,0,0-5.18,28.87" transform="translate(-2.41 -27.77)" fill="none" stroke="#278da5" stroke-miterlimit="10"/><path d="M154.78,163c3.82-10.34,3.06-22.07-2-30.68a47.22,47.22,0,0,0-2.87,16.89C150,155.7,152.19,160.81,154.78,163Z" transform="translate(-2.41 -27.77)" fill="#a2c7eb"/><path d="M153,134.84a87.68,87.68,0,0,0,1.91,28.45" transform="translate(-2.41 -27.77)" fill="none" stroke="#278da5" stroke-miterlimit="10"/><path d="M35.83,131.92c-4.68-14.31-17.73-25.87-32.92-29.15C9.3,115.15,20.87,125,35.83,131.92Z" transform="translate(-2.41 -27.77)" fill="#03b1b9"/><path d="M36.62,134.14a43.25,43.25,0,0,0-34.21-3.41A48.36,48.36,0,0,0,36.62,134.14Z" transform="translate(-2.41 -27.77)" fill="#03b1b9"/><path d="M39.45,137.24a45.21,45.21,0,0,0-31.66,7.45C18,148.4,30.22,146,39.45,137.24Z" transform="translate(-2.41 -27.77)" fill="#03b1b9"/><path d="M42.9,144a35.75,35.75,0,0,0-28.19,13.62A24.07,24.07,0,0,0,29.25,156C33.73,154,37.48,150.52,42.9,144Z" transform="translate(-2.41 -27.77)" fill="#03b1b9"/><path d="M50.63,155.35a36,36,0,0,0-30.12,8.77,24.14,24.14,0,0,0,14.62.79C39.89,163.66,44.18,160.87,50.63,155.35Z" transform="translate(-2.41 -27.77)" fill="#03b1b9"/><path d="M39,132.6a36.27,36.27,0,0,1-5-33.63,56.2,56.2,0,0,1,7,16.69C42.2,121.55,42,127.84,39,132.6Z" transform="translate(-2.41 -27.77)" fill="#03b1b9"/><path d="M43.32,141.88a33.17,33.17,0,0,1,9.19-28.46C53.36,124,50.12,134.77,43.32,141.88Z" transform="translate(-2.41 -27.77)" fill="#a2c7eb"/><path d="M6.24,105.34a121,121,0,0,1,47.69,58.17" transform="translate(-2.41 -27.77)" fill="none" stroke="#278da5" stroke-miterlimit="10"/><path d="M34.61,104.05a171.41,171.41,0,0,1,4.8,32.67" transform="translate(-2.41 -27.77)" fill="none" stroke="#278da5" stroke-miterlimit="10"/><path d="M50.89,117.57a63.62,63.62,0,0,1-7.82,24.74" transform="translate(-2.41 -27.77)" fill="none" stroke="#6f8bbf" stroke-linecap="round" stroke-miterlimit="10"/><path d="M7,131a176.25,176.25,0,0,0,30.22,3.07" transform="translate(-2.41 -27.77)" fill="none" stroke="#278da5" stroke-miterlimit="10"/><path d="M13,143.84a81.05,81.05,0,0,0,26.58-6.55" transform="translate(-2.41 -27.77)" fill="none" stroke="#278da5" stroke-miterlimit="10"/><path d="M18.49,156.1l25.43-12.69" transform="translate(-2.41 -27.77)" fill="none" stroke="#278da5" stroke-miterlimit="10"/><path d="M24,163.56c11.07-2.13,14.36-4.68,26.64-8.2" transform="translate(-2.41 -27.77)" fill="none" stroke="#278da5" stroke-miterlimit="10"/><path d="M94.06,143.3s1,8.77,2,9.48C98,154,120.18,157,120.18,157l-.73,5.77s-30.37,2.73-31.66,1.21c-2.24-2.63-6.17-15.33-6.17-15.33Z" transform="translate(-2.41 -27.77)" fill="#e06958"/><path d="M79.42,120.7l2.45-5.89s6.66,3.12,8.85,7c2.35,4.13,5.23,26.08,5.23,26.08S84.19,150.58,82,149.43,79.42,120.7,79.42,120.7Z" transform="translate(-2.41 -27.77)" fill="#2894a3"/><path d="M60.73,93.35a13,13,0,0,0-5.38-1A5,5,0,0,0,51,95.05c-.44,1.14-.24,2.49-.94,3.53a4.28,4.28,0,0,1-3.26,1.48c-1.26.09-2.52-.08-3.77.08-3.85.51-6.6,4.69-5.33,8.12.5,1.36,1.53,2.67,1.3,4.09s-1.85,2.52-2.5,3.93c-.87,1.88.17,4.16,1.88,5.44a13.46,13.46,0,0,0,6.13,2.09,25.32,25.32,0,0,0,9,0,11.33,11.33,0,0,0,7.3-4.62,37,37,0,0,1,1.88-3.3c1.62-2.09,4.51-2.9,6.78-4.38,2.48-1.62,4.29-4.78,2.83-7.25s-5.07-2.9-6.54-5.24a16.2,16.2,0,0,1-1.14-3.17C64.23,94.82,63.27,94.28,60.73,93.35Z" transform="translate(-2.41 -27.77)" fill="#212121"/><path d="M70.75,122.49a2.6,2.6,0,0,0,1.65,1.09,2.48,2.48,0,0,0,1.85-1A18.77,18.77,0,0,0,79,113.41l-1.75-1a2.65,2.65,0,0,1-1.09-1.19,2.29,2.29,0,0,1-.16-1.13,32.08,32.08,0,0,1,1.82-8.46c-5.49-1.24-10.66-2.71-13.64-5.19-.36,1.53-.79,4.52-1.7,7.49-1,3.15-2.5,6.26-5.08,7.6A54.46,54.46,0,0,1,70.75,122.49Z" transform="translate(-2.41 -27.77)" fill="#f49f7c"/><path d="M76,110.08a2.26,2.26,0,0,0,.16,1.13C73,115.15,65.7,110,62.52,103.93c.91-3,1.34-6,1.7-7.5,3,2.49,8.15,4,13.64,5.19A32.08,32.08,0,0,0,76,110.08Z" transform="translate(-2.41 -27.77)" fill="#e06958"/><path d="M85.08,157.67c-.72,4.75,4.41,9.86,4.53,12.4-10.88,0-33.69.66-45.3-.92-.53-2.93,5.21-9.52,5.21-16,0-.86,0-1.8-.11-2.82-.18-2.9-.61-6.36-1.09-9.9-1.29-9.5-3-19.67-1.74-21.78,2.49-4.1,8.32-6.89,11.21-8.09,1-.41,1.64-.64,1.69-.66,3.62,6.18,11,11.46,13.79,11.22.77-.06,3.07-.86,4.59-8.5.59.34,1.18.65,1.76,1,2.89,1.5,5.59,2.74,6.37,4.66,2.05,5.08,4.07,17.88,3.62,22.44s-2.29,8.1-3.59,12.71c-.3,1.08-.58,2.22-.8,3.46C85.16,157.08,85.12,157.37,85.08,157.67Z" transform="translate(-2.41 -27.77)" fill="#278da5"/><path d="M89.61,170.07c-10.88,0-33.69.66-45.3-.92-.53-2.93,5.21-9.52,5.21-16,0-.86,0-1.8-.11-2.82-.18-2.9-.61-6.36-1.09-9.9,2.06,2.17,5.07-7,6.4-4.32,7.19,14.52,12.86,18.34,22.72,18.34A38.1,38.1,0,0,0,86,153.35c-.3,1.08-.58,2.22-.8,3.46,0,.28-.1.56-.14.86C84.36,162.41,89.49,167.53,89.61,170.07Z" transform="translate(-2.41 -27.77)" fill="#34669a"/><path d="M79.62,113.54c-.46,3.4-1.85,8-5.88,9.18-5.45,1.63-13.34-8.55-15.95-12.19,1-.41,1.64-.64,1.69-.66,3.62,6.18,11,11.46,13.79,11.22.77-.06,3.07-.86,4.59-8.5C78.45,112.92,79,113.23,79.62,113.54Z" transform="translate(-2.41 -27.77)" fill="#34669a"/><polygon points="79.45 137.18 79.42 140.97 147.21 141.37 147.35 137.07 79.45 137.18" fill="#03b1b9"/><polygon points="176.59 103.35 175.08 101.82 125.7 101.5 100.93 137.32 102.22 138.36 176.59 103.35" fill="#03b1b9"/><polygon points="126.66 102.82 102.22 138.36 148.89 138.59 176.59 103.35 126.66 102.82" fill="#212121"/><ellipse cx="138.45" cy="122.79" rx="5.43" ry="2.72" fill="#03b1b9"/><ellipse cx="87.8" cy="96.43" rx="7.61" ry="5.02" transform="translate(-25.49 137.3) rotate(-79.44)" fill="#5ec1ef"/><path d="M92.74,84.39c-.51,3.59-2.12,7.55-4.46,11.93-.82-3.58-1.34-7.95-2.07-12.32A51.15,51.15,0,0,0,82.9,71.66a22.58,22.58,0,0,0-1.2-2.24,8,8,0,0,1,2.88.25,9.75,9.75,0,0,1,3.94,2.15,13.85,13.85,0,0,1,3.83,6.27A14.08,14.08,0,0,1,92.74,84.39Z" transform="translate(-2.41 -27.77)"/><path d="M90,88.1c0,.71-.08,1.44-.14,2.15-1,11.64-5.88,19.62-13.36,19.62C65.94,109.87,59.1,98,59.1,86.44c0-11.44,7-19.72,15.21-18.76,4.72.54,8.18,2.11,10.63,4.41a14.5,14.5,0,0,1,3.6,5.49A24,24,0,0,1,90,85.48s0,0,0,0C90,86.35,90,87.22,90,88.1Z" transform="translate(-2.41 -27.77)" fill="#f49f7c"/><path d="M90,88.1a11.76,11.76,0,0,0-1.42-3.2,33.25,33.25,0,0,1-20.68,3.32l-4,3.31c0-5.29.1-8.87,2.17-11.44,1.93-2.4,5.17-3.31,8.23-3.7a38,38,0,0,1,10.38.06,10.5,10.5,0,0,1,3.83,1.14A23.72,23.72,0,0,1,90,85.49a0,0,0,0,1,0,0C90,86.35,90,87.22,90,88.1Z" transform="translate(-2.41 -27.77)" fill="#e06958"/><path d="M91.51,80.94A19.3,19.3,0,0,1,86.21,84c-5.8,2.34-13.33,3.12-19.21,2.83-2.89,6.34-4,8.62-4.79,14.15a22.55,22.55,0,0,1-5.8-11.3,25.72,25.72,0,0,1,.45-11.51,17.23,17.23,0,0,1,8.78-10.56,16.23,16.23,0,0,1,1.89-.88,18.06,18.06,0,0,1,11.73-.14,13.89,13.89,0,0,1,5.31,3.09,26.2,26.2,0,0,1,6,9.06C91,79.58,91.26,80.33,91.51,80.94Z" transform="translate(-2.41 -27.77)" fill="#212121"/><path d="M92.74,84.39a17.54,17.54,0,0,0-1.11-3.7,14.07,14.07,0,0,0-1-2A10.74,10.74,0,0,0,85,74.18a19.5,19.5,0,0,0-2.1-2.51,16.19,16.19,0,0,0-9-4.77,17.22,17.22,0,0,0-8.21.7,15.94,15.94,0,0,1,1.89-.87,18.06,18.06,0,0,1,11.73-.14,13.87,13.87,0,0,1,5.31,3.08,9.75,9.75,0,0,1,3.94,2.15,13.87,13.87,0,0,1,3.84,6.27A14.23,14.23,0,0,1,92.74,84.39Z" transform="translate(-2.41 -27.77)" fill="#212121"/><path d="M70.36,91.52a7.42,7.42,0,0,1,6.82-.58" transform="translate(-2.41 -27.77)" fill="none" stroke="#182e4e" stroke-linecap="round" stroke-miterlimit="10" stroke-width="2"/><path d="M83.72,91.44c1.67-1.24,4.15-1.37,5.44,0" transform="translate(-2.41 -27.77)" fill="none" stroke="#182e4e" stroke-linecap="round" stroke-miterlimit="10" stroke-width="2"/><path d="M81.71,97.8a8,8,0,0,1-.35,3.72" transform="translate(-2.41 -27.77)" fill="none" stroke="#cc454e" stroke-linecap="round" stroke-miterlimit="10" stroke-width="2"/><ellipse cx="72.71" cy="69.35" rx="0.8" ry="1.27" fill="#262d40"/><ellipse cx="83.23" cy="68.76" rx="0.8" ry="1.27" fill="#262d40"/><path d="M80.71,103.25a7.26,7.26,0,0,1-.46.72,5,5,0,0,1-2.38,1.85h0a3.1,3.1,0,0,1-1.53.1c-1.64-.29-2.07-1.81-2.15-3,0-.23,0-.44,0-.63a5.35,5.35,0,0,1,.07-.79A18.63,18.63,0,0,0,80.71,103.25Z" transform="translate(-2.41 -27.77)" fill="#cc454e"/><path d="M80.71,103.25a7.26,7.26,0,0,1-.46.72,18.24,18.24,0,0,1-6.08-1.66,5.35,5.35,0,0,1,.07-.79A18.63,18.63,0,0,0,80.71,103.25Z" transform="translate(-2.41 -27.77)" fill="#fff"/><path d="M77.87,105.81a3.1,3.1,0,0,1-1.53.1c-1.64-.29-2.07-1.81-2.15-3a4.56,4.56,0,0,1,2.2.88A4.62,4.62,0,0,1,77.87,105.81Z" transform="translate(-2.41 -27.77)" fill="#ea729c"/><path d="M62.23,89.51a30.25,30.25,0,0,1,2.18-10.87,15.64,15.64,0,0,1,14.28-9.91,15.31,15.31,0,0,1,11,4.32,11.57,11.57,0,0,0-6.56-5,18.32,18.32,0,0,0-10.64.56,19.11,19.11,0,0,0-9.63,9.71A57.81,57.81,0,0,0,60.5,89.16Z" transform="translate(-2.41 -27.77)" fill="#34669a"/><ellipse cx="61.29" cy="95.74" rx="5.29" ry="8.01" transform="translate(-11.98 -20.92) rotate(-5.94)" fill="#5ec1ef"/><ellipse cx="59.89" cy="96.33" rx="3.43" ry="6.04" transform="translate(-16.06 -17.8) rotate(-8.55)" fill="#34669a"/><ellipse cx="76.33" cy="80.5" rx="2.82" ry="1.75" fill="#34669a"/><path d="M64.59,102.41a17,17,0,0,0,11.33,5.87" transform="translate(-2.41 -27.77)" fill="none" stroke="#34669a" stroke-miterlimit="10"/><path d="M81.82,154.83l-.27,7S56.26,169.4,52.08,167c-2-1.17-3.94-7.61-5.36-13.91C45.23,146.48,44.28,140,44.28,140l14.83-2.9s0,9,.51,14.26c.18,1.95.44,3.37.78,3.6C61.71,155.86,81.82,154.83,81.82,154.83Z" transform="translate(-2.41 -27.77)" fill="#f49f7c"/><path d="M59.62,151.4a33.28,33.28,0,0,1-12.9,1.69C45.23,146.47,44.28,140,44.28,140l14.83-2.91S59.12,146.17,59.62,151.4Z" transform="translate(-2.41 -27.77)" fill="#e06958"/><path d="M81.1,154.9c3.76-.81,10.13-2.74,12.77-3.4,1.88-.48,6.76,2.05,8,4.44.57,1,1.1,6.93-.85,6.32-1-.3-.82-2.83-1.13-3.86A4.56,4.56,0,0,0,97.69,156a13.46,13.46,0,0,1,.69,6,3.16,3.16,0,0,1-.28,1.4,1,1,0,0,1-1.18.53c-.45-.19-.6-.74-.7-1.23a39.09,39.09,0,0,1-.84-5.26q.06,2.81-.12,5.61c-.09,1.42-.8,2.21-1.67,2-.39-.11-.54-.47-.71-.94-.26.91-.92,1.92-1.77,1.54-.51-.24-.83-2.1-.74-4a11.26,11.26,0,0,1-5.58,1.54c-1.9.09-3.84-.27-5-1.56A33.7,33.7,0,0,1,81.1,154.9Z" transform="translate(-2.41 -27.77)" fill="#f49f7c"/><path d="M92.92,163.78a13.4,13.4,0,0,0-.39-4.51" transform="translate(-2.41 -27.77)" fill="none" stroke="#cc454e" stroke-linecap="round" stroke-miterlimit="10"/><path d="M57.44,122.47c-1.08-3-5-9.23-5-9.23s-6,2.5-8.14,6.74c-3.62,7.19-1.78,27.84-1.78,27.84,4.87,2,14.64,2.07,18.8,1.48C61.3,149.3,59.6,128.53,57.44,122.47Z" transform="translate(-2.41 -27.77)" fill="#278da5"/><path d="M58.21,123.74A133.72,133.72,0,0,1,61,146.08" transform="translate(-2.41 -27.77)" fill="#34669a"/><rect x="12.07" y="140.13" width="172.44" height="4.33" fill="#278da5"/></svg>